<svg width="223" height="324" viewBox="0 0 223 324" fill="none" xmlns="http://www.w3.org/2000/svg">
<g clip-path="url(#clip0_14_3126)">
<path d="M222.449 314.064C222.449 319.1 218.333 323.223 213.288 323.223H9.48104C4.44784 323.223 0.333252 319.1 0.333252 314.064V9.49353C0.333252 4.45707 4.44784 0.333374 9.48104 0.333374H213.288C218.333 0.333374 222.449 4.45707 222.449 9.49353V314.064Z" fill="white" stroke="black" stroke-width="0.666667"/>
<path d="M16.4393 31.551H12.6893V7.65519C11.7865 8.5163 10.599 9.37741 9.12679 10.2385C7.66846 11.0996 6.35596 11.7455 5.18929 12.176V8.55102C7.28651 7.56491 9.11985 6.37047 10.6893 4.96769C12.2587 3.56491 13.3698 2.2038 14.0226 0.884358H16.4393V31.551Z" fill="#DEA701"/>
<path d="M29.0108 49.6763C24.842 44.0365 22.624 38.3048 22.624 38.3048C22.624 38.3048 20.4061 44.0365 16.2372 49.6763C12.0665 55.3142 6.87036 58.9815 6.87036 58.9815C6.87036 58.9815 12.0665 62.6468 16.2372 68.2886C20.4061 73.9265 22.624 79.6582 22.624 79.6582C22.624 79.6582 24.842 73.9265 29.0108 68.2886C33.1816 62.6468 38.3777 58.9815 38.3777 58.9815C38.3777 58.9815 33.1816 55.3142 29.0108 49.6763Z" fill="#DEA701"/>
<path d="M207.215 255.366C203.046 249.726 200.828 243.995 200.828 243.995C200.828 243.995 198.61 249.726 194.441 255.366C190.27 261.004 185.074 264.671 185.074 264.671C185.074 264.671 190.27 268.337 194.441 273.978C198.61 279.616 200.828 285.348 200.828 285.348C200.828 285.348 203.046 279.616 207.215 273.978C211.385 268.337 216.582 264.671 216.582 264.671C216.582 264.671 211.385 261.004 207.215 255.366Z" fill="#DEA701"/>
<path d="M83.3646 264.912C76.0587 255.029 72.1717 244.984 72.1717 244.984C72.1717 244.984 68.2847 255.029 60.9788 264.912C53.6694 274.793 44.5632 281.22 44.5632 281.22C44.5632 281.22 53.6694 287.643 60.9788 297.531C68.2847 307.411 72.1717 317.456 72.1717 317.456C72.1717 317.456 76.0587 307.411 83.3646 297.531C90.6739 287.643 99.7801 281.22 99.7801 281.22C99.7801 281.22 90.6739 274.793 83.3646 264.912Z" fill="#DEA701"/>
<path d="M83.3646 25.852C76.0587 15.9682 72.1717 5.92334 72.1717 5.92334C72.1717 5.92334 68.2847 15.9682 60.9788 25.852C53.6694 35.7324 44.5632 42.1594 44.5632 42.1594C44.5632 42.1594 53.6694 48.583 60.9788 58.4702C68.2847 68.3506 72.1717 78.3955 72.1717 78.3955C72.1717 78.3955 76.0587 68.3506 83.3646 58.4702C90.6739 48.583 99.7801 42.1594 99.7801 42.1594C99.7801 42.1594 90.6739 35.7324 83.3646 25.852Z" fill="#DEA701"/>
<path d="M83.3646 185.27C76.0587 175.386 72.1717 165.341 72.1717 165.341C72.1717 165.341 68.2847 175.386 60.9788 185.27C53.6694 195.15 44.5632 201.577 44.5632 201.577C44.5632 201.577 53.6694 208.001 60.9788 217.888C68.2847 227.768 72.1717 237.813 72.1717 237.813C72.1717 237.813 76.0587 227.768 83.3646 217.888C90.6739 208.001 99.7801 201.577 99.7801 201.577C99.7801 201.577 90.6739 195.15 83.3646 185.27Z" fill="#DEA701"/>
<path d="M83.3646 105.495C76.0587 95.6108 72.1717 85.5659 72.1717 85.5659C72.1717 85.5659 68.2847 95.6108 60.9788 105.495C53.6694 115.375 44.5632 121.802 44.5632 121.802C44.5632 121.802 53.6694 128.226 60.9788 138.113C68.2847 147.993 72.1717 158.038 72.1717 158.038C72.1717 158.038 76.0587 147.993 83.3646 138.113C90.6739 128.226 99.7801 121.802 99.7801 121.802C99.7801 121.802 90.6739 115.375 83.3646 105.495Z" fill="#DEA701"/>
<path d="M161.721 264.912C154.415 255.029 150.528 244.984 150.528 244.984C150.528 244.984 146.641 255.029 139.335 264.912C132.026 274.793 122.919 281.22 122.919 281.22C122.919 281.22 132.026 287.643 139.335 297.531C146.641 307.411 150.528 317.456 150.528 317.456C150.528 317.456 154.415 307.411 161.721 297.531C169.03 287.643 178.136 281.22 178.136 281.22C178.136 281.22 169.03 274.793 161.721 264.912Z" fill="#DEA701"/>
<path d="M161.721 25.852C154.415 15.9682 150.528 5.92334 150.528 5.92334C150.528 5.92334 146.641 15.9682 139.335 25.852C132.026 35.7324 122.919 42.1594 122.919 42.1594C122.919 42.1594 132.026 48.583 139.335 58.4702C146.641 68.3506 150.528 78.3955 150.528 78.3955C150.528 78.3955 154.415 68.3506 161.721 58.4702C169.03 48.583 178.136 42.1594 178.136 42.1594C178.136 42.1594 169.03 35.7324 161.721 25.852Z" fill="#DEA701"/>
<path d="M161.721 185.27C154.415 175.386 150.528 165.341 150.528 165.341C150.528 165.341 146.641 175.386 139.335 185.27C132.026 195.15 122.919 201.577 122.919 201.577C122.919 201.577 132.026 208.001 139.335 217.888C146.641 227.768 150.528 237.813 150.528 237.813C150.528 237.813 154.415 227.768 161.721 217.888C169.03 208.001 178.136 201.577 178.136 201.577C178.136 201.577 169.03 195.15 161.721 185.27Z" fill="#DEA701"/>
<path d="M161.721 105.495C154.415 95.6108 150.528 85.5659 150.528 85.5659C150.528 85.5659 146.641 95.6108 139.335 105.495C132.026 115.375 122.919 121.802 122.919 121.802C122.919 121.802 132.026 128.226 139.335 138.113C146.641 147.993 150.528 158.038 150.528 158.038C150.528 158.038 154.415 147.993 161.721 138.113C169.03 128.226 178.136 121.802 178.136 121.802C178.136 121.802 169.03 115.375 161.721 105.495Z" fill="#DEA701"/>
<path d="M122.144 66.1312C114.838 56.2474 110.951 46.2025 110.951 46.2025C110.951 46.2025 107.064 56.2474 99.7583 66.1312C92.449 76.0116 83.3428 82.4386 83.3428 82.4386C83.3428 82.4386 92.449 88.8621 99.7583 98.7494C107.064 108.63 110.951 118.675 110.951 118.675C110.951 118.675 114.838 108.63 122.144 98.7494C129.453 88.8621 138.56 82.4386 138.56 82.4386C138.56 82.4386 129.453 76.0116 122.144 66.1312Z" fill="#DEA701"/>
<path d="M121.87 224.81C114.564 214.926 110.677 204.881 110.677 204.881C110.677 204.881 106.79 214.926 99.4844 224.81C92.1751 234.69 83.0688 241.117 83.0688 241.117C83.0688 241.117 92.1751 247.541 99.4844 257.428C106.79 267.309 110.677 277.353 110.677 277.353C110.677 277.353 114.564 267.309 121.87 257.428C129.18 247.541 138.286 241.117 138.286 241.117C138.286 241.117 129.18 234.69 121.87 224.81Z" fill="#DEA701"/>
<path d="M19.3927 16.439C19.3927 12.8279 19.7607 9.92508 20.4968 7.73063C21.2468 5.5223 22.351 3.82091 23.8093 2.62646C25.2815 1.43202 27.1288 0.834797 29.351 0.834797C30.9899 0.834797 32.4274 1.16813 33.6635 1.8348C34.8996 2.48758 35.9204 3.43896 36.726 4.68896C37.5315 5.92508 38.1635 7.43896 38.6218 9.23063C39.0802 11.0084 39.3093 13.4112 39.3093 16.439C39.3093 20.0223 38.9413 22.9181 38.2052 25.1265C37.469 27.3209 36.3649 29.0223 34.8927 30.2306C33.4343 31.4251 31.5871 32.0223 29.351 32.0223C26.4065 32.0223 24.094 30.9667 22.4135 28.8556C20.3996 26.314 19.3927 22.1751 19.3927 16.439ZM23.2468 16.439C23.2468 21.4529 23.8302 24.7931 24.9968 26.4598C26.1774 28.1126 27.6288 28.939 29.351 28.939C31.0732 28.939 32.5177 28.1056 33.6843 26.439C34.8649 24.7723 35.4552 21.439 35.4552 16.439C35.4552 11.4112 34.8649 8.07091 33.6843 6.41813C32.5177 4.76535 31.0593 3.93896 29.3093 3.93896C27.5871 3.93896 26.2121 4.66813 25.1843 6.12646C23.8927 7.98758 23.2468 11.4251 23.2468 16.439Z" fill="#DEA701"/>
<path d="M206.018 291.646H209.768V315.541C210.671 314.68 211.858 313.819 213.33 312.958C214.789 312.097 216.101 311.451 217.268 311.021V314.646C215.171 315.632 213.337 316.826 211.768 318.229C210.199 319.632 209.087 320.993 208.435 322.312H206.018V291.646Z" fill="#DEA701"/>
<path d="M203.065 306.758C203.065 310.369 202.697 313.271 201.96 315.466C201.21 317.674 200.106 319.376 198.648 320.57C197.176 321.765 195.329 322.362 193.106 322.362C191.467 322.362 190.03 322.028 188.794 321.362C187.558 320.709 186.537 319.758 185.731 318.508C184.926 317.271 184.294 315.758 183.835 313.966C183.377 312.188 183.148 309.785 183.148 306.758C183.148 303.174 183.516 300.278 184.252 298.07C184.988 295.876 186.092 294.174 187.565 292.966C189.023 291.771 190.87 291.174 193.106 291.174C196.051 291.174 198.363 292.23 200.044 294.341C202.058 296.883 203.065 301.021 203.065 306.758ZM199.21 306.758C199.21 301.744 198.627 298.403 197.46 296.737C196.28 295.084 194.829 294.258 193.106 294.258C191.384 294.258 189.94 295.091 188.773 296.758C187.592 298.424 187.002 301.758 187.002 306.758C187.002 311.785 187.592 315.126 188.773 316.778C189.94 318.431 191.398 319.258 193.148 319.258C194.87 319.258 196.245 318.528 197.273 317.07C198.565 315.209 199.21 311.771 199.21 306.758Z" fill="#DEA701"/>
</g>
<defs>
<clipPath id="clip0_14_3126">
<rect width="222.783" height="323.556" fill="white"/>
</clipPath>
</defs>
</svg>
