<svg width="223" height="324" viewBox="0 0 223 324" fill="none" xmlns="http://www.w3.org/2000/svg">
<g clip-path="url(#clip0_14_3204)">
<path d="M222.449 314.064C222.449 319.1 218.333 323.223 213.288 323.223H9.48104C4.44784 323.223 0.333252 319.1 0.333252 314.064V9.49347C0.333252 4.45701 4.44784 0.333313 9.48104 0.333313H213.288C218.333 0.333313 222.449 4.45701 222.449 9.49347V314.064Z" fill="white" stroke="#323232" stroke-width="0.666667"/>
<path d="M15.9539 34.1227H12.2039V10.2268C11.3012 11.088 10.1137 11.9491 8.64144 12.8102C7.18311 13.6713 5.87061 14.3171 4.70394 14.7477V11.1227C6.80116 10.1366 8.63449 8.94212 10.2039 7.53935C11.7734 6.13657 12.8845 4.77546 13.5373 3.45601H15.9539V34.1227Z" fill="#323232"/>
<path d="M38.6416 65.7946C38.1548 58.3333 23.0588 44.29 22.572 40.7773C22.0853 44.2881 6.98925 58.3315 6.50248 65.7946C6.16254 71.0691 9.9119 73.2558 13.3213 73.2558C17.0127 73.2161 20.0615 68.105 21.1117 67.1114C21.5985 68.4282 17.8873 79.4002 16.7287 79.4002H28.4173C27.2587 79.4002 23.5476 68.4282 24.0344 67.1114C24.9539 68.0241 27.6492 73.1028 31.8268 73.2558C35.2342 73.254 38.9815 71.0691 38.6416 65.7946Z" fill="#323232"/>
<path d="M98.8949 52.3741C98.0403 39.2742 71.5358 14.6179 70.6812 8.45062C69.8266 14.6147 43.3221 39.271 42.4675 52.3741C41.8706 61.6348 48.4535 65.474 54.4395 65.474C60.9205 65.4043 66.2733 56.4307 68.1173 54.6861C68.9719 56.998 62.4562 76.2619 60.422 76.2619H80.9439C78.9098 76.2619 72.394 56.998 73.2487 54.6861C74.8631 56.2886 79.5953 65.2054 86.93 65.474C92.9124 65.4708 99.4918 61.6348 98.8949 52.3741Z" fill="#323232"/>
<path d="M184.23 258.352C184.717 265.813 199.813 279.857 200.3 283.369C200.787 279.858 215.883 265.815 216.37 258.352C216.71 253.078 212.96 250.891 209.551 250.891C205.859 250.93 202.811 256.042 201.76 257.035C201.274 255.718 204.985 244.746 206.143 244.746H194.455C195.613 244.746 199.324 255.718 198.838 257.035C197.918 256.123 195.223 251.044 191.045 250.891C187.638 250.893 183.891 253.078 184.23 258.352Z" fill="#323232"/>
<path d="M99.3334 136.284C98.4788 123.184 71.9743 98.5279 71.1197 92.3606C70.265 98.5247 43.7606 123.181 42.906 136.284C42.3091 145.545 48.892 149.384 54.878 149.384C61.359 149.314 66.7118 140.341 68.5558 138.596C69.4104 140.908 62.8946 160.172 60.8605 160.172H81.3824C79.3482 160.172 72.8325 140.908 73.6871 138.596C75.3016 140.199 80.0338 149.115 87.3684 149.384C93.3509 149.381 99.9302 145.545 99.3334 136.284Z" fill="#323232"/>
<path d="M43.5052 273.532C44.3599 286.632 70.8643 311.289 71.7189 317.456C72.5736 311.292 99.078 286.636 99.9327 273.532C100.53 264.272 93.9467 260.433 87.9606 260.433C81.4796 260.502 76.1268 269.476 74.2829 271.221C73.4282 268.909 79.944 249.645 81.9782 249.645H61.4562C63.4904 249.645 70.0061 268.909 69.1515 271.221C67.537 269.618 62.8048 260.701 55.4702 260.433C49.4877 260.436 42.9084 264.272 43.5052 273.532Z" fill="#323232"/>
<path d="M43.067 191.756C43.9216 204.856 70.4261 229.512 71.2807 235.679C72.1354 229.515 98.6398 204.859 99.4944 191.756C100.091 182.495 93.5084 178.656 87.5224 178.656C81.0414 178.726 75.6886 187.699 73.8446 189.444C72.99 187.132 79.5057 167.868 81.5399 167.868H61.018C63.0521 167.868 69.5679 187.132 68.7133 189.444C67.0988 187.841 62.3666 178.924 55.0319 178.656C49.0495 178.659 42.4701 182.495 43.067 191.756Z" fill="#323232"/>
<path d="M181.518 52.1235C180.663 39.0236 154.159 14.3673 153.304 8.20001C152.45 14.3641 125.945 39.0204 125.091 52.1235C124.494 61.3842 131.077 65.2234 137.063 65.2234C143.544 65.1537 148.896 56.1801 150.74 54.4354C151.595 56.7474 145.079 76.0113 143.045 76.0113H163.567C161.533 76.0113 155.017 56.7474 155.872 54.4354C157.486 56.038 162.218 64.9548 169.553 65.2234C175.535 65.2202 182.115 61.3842 181.518 52.1235Z" fill="#323232"/>
<path d="M181.956 136.033C181.102 122.934 154.597 98.2773 153.743 92.11C152.888 98.2741 126.384 122.93 125.529 136.033C124.932 145.294 131.515 149.133 137.501 149.133C143.982 149.064 149.335 140.09 151.179 138.345C152.033 140.657 145.518 159.921 143.484 159.921H164.005C161.971 159.921 155.456 140.657 156.31 138.345C157.925 139.948 162.657 148.865 169.991 149.133C175.974 149.13 182.553 145.294 181.956 136.033Z" fill="#323232"/>
<path d="M126.129 273.282C126.983 286.382 153.488 311.038 154.342 317.205C155.197 311.041 181.701 286.385 182.556 273.282C183.153 264.021 176.57 260.182 170.584 260.182C164.103 260.252 158.75 269.225 156.906 270.97C156.052 268.658 162.567 249.394 164.601 249.394H144.079C146.114 249.394 152.629 268.658 151.775 270.97C150.16 269.367 145.428 260.45 138.093 260.182C132.111 260.185 125.532 264.021 126.129 273.282Z" fill="#323232"/>
<path d="M125.69 191.505C126.545 204.605 153.049 229.261 153.904 235.429C154.758 229.265 181.263 204.608 182.117 191.505C182.714 182.245 176.131 178.405 170.145 178.405C163.664 178.475 158.312 187.449 156.468 189.193C155.613 186.881 162.129 167.617 164.163 167.617H143.641C145.675 167.617 152.191 186.881 151.336 189.193C149.722 187.591 144.99 178.674 137.655 178.405C131.673 178.409 125.093 182.245 125.69 191.505Z" fill="#323232"/>
<path d="M140.417 95.581C139.562 82.4812 113.058 57.8248 112.203 51.6575C111.348 57.8216 84.8438 82.4779 83.9892 95.581C83.3924 104.842 89.9752 108.681 95.9612 108.681C102.442 108.611 107.795 99.6376 109.639 97.893C110.494 100.205 103.978 119.469 101.944 119.469H122.466C120.431 119.469 113.916 100.205 114.77 97.893C116.385 99.4955 121.117 108.412 128.452 108.681C134.434 108.678 141.013 104.842 140.417 95.581Z" fill="#323232"/>
<path d="M84.4273 230.701C85.282 243.801 111.786 268.457 112.641 274.624C113.496 268.46 140 243.804 140.855 230.701C141.452 221.44 134.869 217.601 128.883 217.601C122.402 217.671 117.049 226.644 115.205 228.389C114.35 226.077 120.866 206.813 122.9 206.813H102.378C104.413 206.813 110.928 226.077 110.074 228.389C108.459 226.786 103.727 217.87 96.3923 217.601C90.4098 217.604 83.8305 221.44 84.4273 230.701Z" fill="#323232"/>
<path d="M29.6082 37.9852C27.3254 37.9852 25.381 37.364 23.7749 36.1216C22.1688 34.8691 20.9416 33.0559 20.0931 30.6822C19.2446 28.2983 18.8204 25.4196 18.8204 22.0458C18.8204 18.6923 19.2446 15.8286 20.0931 13.4549C20.9517 11.0711 22.184 9.25289 23.7901 8.00037C25.4062 6.73774 27.3456 6.10643 29.6082 6.10643C31.8709 6.10643 33.8052 6.73774 35.4113 8.00037C37.0274 9.25289 38.2598 11.0711 39.1082 13.4549C39.9668 15.8286 40.3961 18.6923 40.3961 22.0458C40.3961 25.4196 39.9719 28.2983 39.1234 30.6822C38.2749 33.0559 37.0476 34.8691 35.4416 36.1216C33.8355 37.364 31.8911 37.9852 29.6082 37.9852ZM29.6082 34.6519C31.8709 34.6519 33.6284 33.561 34.881 31.3792C36.1335 29.1973 36.7598 26.0862 36.7598 22.0458C36.7598 19.359 36.4719 17.0711 35.8961 15.1822C35.3305 13.2933 34.5123 11.8539 33.4416 10.864C32.381 9.8741 31.1032 9.37915 29.6082 9.37915C27.3658 9.37915 25.6133 10.4852 24.3507 12.6973C23.088 14.8994 22.4567 18.0155 22.4567 22.0458C22.4567 24.7327 22.7395 27.0155 23.3052 28.8943C23.8709 30.7731 24.684 32.2024 25.7446 33.1822C26.8153 34.162 28.1032 34.6519 29.6082 34.6519Z" fill="#323232"/>
<path d="M206.553 289.777H210.303V313.673C211.206 312.811 212.393 311.95 213.866 311.089C215.324 310.228 216.636 309.582 217.803 309.152V312.777C215.706 313.763 213.873 314.957 212.303 316.36C210.734 317.763 209.623 319.124 208.97 320.443H206.553V289.777Z" fill="#323232"/>
<path d="M192.899 285.914C195.182 285.914 197.126 286.535 198.732 287.778C200.338 289.03 201.566 290.844 202.414 293.217C203.262 295.601 203.687 298.48 203.687 301.854C203.687 305.207 203.262 308.071 202.414 310.445C201.555 312.828 200.323 314.647 198.717 315.899C197.101 317.162 195.161 317.793 192.899 317.793C190.636 317.793 188.702 317.162 187.096 315.899C185.48 314.647 184.247 312.828 183.399 310.445C182.54 308.071 182.111 305.207 182.111 301.854C182.111 298.48 182.535 295.601 183.384 293.217C184.232 290.844 185.459 289.03 187.066 287.778C188.672 286.535 190.616 285.914 192.899 285.914ZM192.899 289.248C190.636 289.248 188.879 290.339 187.626 292.52C186.374 294.702 185.747 297.813 185.747 301.854C185.747 304.541 186.035 306.828 186.611 308.717C187.177 310.606 187.995 312.046 189.066 313.035C190.126 314.025 191.404 314.52 192.899 314.52C195.141 314.52 196.894 313.414 198.156 311.202C199.419 309 200.05 305.884 200.05 301.854C200.05 299.167 199.768 296.884 199.202 295.005C198.636 293.126 197.823 291.697 196.762 290.717C195.692 289.737 194.404 289.248 192.899 289.248Z" fill="#323232"/>
</g>
<defs>
<clipPath id="clip0_14_3204">
<rect width="222.783" height="323.556" fill="white"/>
</clipPath>
</defs>
</svg>
