<svg width="223" height="324" viewBox="0 0 223 324" fill="none" xmlns="http://www.w3.org/2000/svg">
<g clip-path="url(#clip0_14_3165)">
<path d="M222.449 314.064C222.449 319.1 218.333 323.223 213.288 323.223H9.48104C4.44784 323.223 0.333252 319.1 0.333252 314.064V9.49353C0.333252 4.45707 4.44784 0.333374 9.48104 0.333374H213.288C218.333 0.333374 222.449 4.45707 222.449 9.49353V314.064Z" fill="white" stroke="black" stroke-width="0.666667"/>
<path d="M14.5797 35.27H10.8297V11.3742C9.92689 12.2353 8.73939 13.0964 7.26717 13.9575C5.80884 14.8186 4.49634 15.4645 3.32967 15.895V12.27C5.42689 11.2839 7.26023 10.0895 8.82967 8.68669C10.3991 7.28391 11.5102 5.9228 12.163 4.60335H14.5797V35.27Z" fill="#C80000"/>
<path d="M31.1096 43.0432C23.8699 43.0432 22.9032 50.3078 22.9032 50.3078C22.9032 50.3078 21.9366 43.0432 14.6969 43.0432C9.62931 43.0432 5.04395 46.3005 5.04395 52.4452C5.04395 60.5643 19.7313 68.729 22.9032 80.651C25.9215 68.739 40.7625 60.5643 40.7625 52.4452C40.7625 46.3005 36.1771 43.0432 31.1096 43.0432Z" fill="#C80000"/>
<path d="M192.002 278.995C199.241 278.995 200.208 271.73 200.208 271.73C200.208 271.73 201.175 278.995 208.414 278.995C213.482 278.995 218.067 275.737 218.067 269.593C218.067 261.474 203.38 253.309 200.208 241.387C197.19 253.299 182.349 261.474 182.349 269.593C182.349 275.737 186.934 278.995 192.002 278.995Z" fill="#C80000"/>
<path d="M86.3039 8.79443C74.2875 8.79443 72.683 20.8521 72.683 20.8521C72.683 20.8521 71.0786 8.79443 59.0622 8.79443C50.6511 8.79443 43.0403 14.2008 43.0403 24.3998C43.0403 37.8758 67.4183 51.4275 72.683 71.2157C77.6927 51.4441 102.326 37.8758 102.326 24.3998C102.326 14.2008 94.715 8.79443 86.3039 8.79443Z" fill="#C80000"/>
<path d="M59.0621 314.952C71.0785 314.952 72.6829 302.894 72.6829 302.894C72.6829 302.894 74.2873 314.952 86.3038 314.952C94.7149 314.952 102.326 309.546 102.326 299.347C102.326 285.871 77.9477 272.319 72.6829 252.531C67.6733 272.302 43.0402 285.871 43.0402 299.347C43.0402 309.546 50.651 314.952 59.0621 314.952Z" fill="#C80000"/>
<path d="M86.3039 95.7742C74.2875 95.7742 72.683 107.832 72.683 107.832C72.683 107.832 71.0786 95.7742 59.0622 95.7742C50.6511 95.7742 43.0403 101.181 43.0403 111.379C43.0403 124.856 67.4183 138.407 72.683 158.195C77.6927 138.424 102.326 124.856 102.326 111.379C102.326 101.181 94.715 95.7742 86.3039 95.7742Z" fill="#C80000"/>
<path d="M59.0621 225.019C71.0785 225.019 72.6829 212.961 72.6829 212.961C72.6829 212.961 74.2873 225.019 86.3038 225.019C94.7149 225.019 102.326 219.612 102.326 209.413C102.326 195.937 77.9477 182.386 72.6829 162.597C67.6733 182.369 43.0402 195.937 43.0402 209.413C43.0402 219.612 50.651 225.019 59.0621 225.019Z" fill="#C80000"/>
<path d="M162.942 9.59277C150.926 9.59277 149.321 21.6505 149.321 21.6505C149.321 21.6505 147.717 9.59277 135.7 9.59277C127.289 9.59277 119.678 14.9992 119.678 25.1981C119.678 38.6742 144.056 52.2259 149.321 72.0141C154.331 52.2425 178.964 38.6742 178.964 25.1981C178.964 14.9992 171.353 9.59277 162.942 9.59277Z" fill="#C80000"/>
<path d="M135.7 315.751C147.717 315.751 149.321 303.693 149.321 303.693C149.321 303.693 150.926 315.751 162.942 315.751C171.353 315.751 178.964 310.344 178.964 300.145C178.964 286.669 154.586 273.118 149.321 253.329C144.311 273.101 119.678 286.669 119.678 300.145C119.678 310.344 127.289 315.751 135.7 315.751Z" fill="#C80000"/>
<path d="M162.942 96.5725C150.926 96.5725 149.321 108.63 149.321 108.63C149.321 108.63 147.717 96.5725 135.7 96.5725C127.289 96.5725 119.678 101.979 119.678 112.178C119.678 125.654 144.056 139.206 149.321 158.994C154.331 139.222 178.964 125.654 178.964 112.178C178.964 101.979 171.353 96.5725 162.942 96.5725Z" fill="#C80000"/>
<path d="M135.7 225.817C147.717 225.817 149.321 213.759 149.321 213.759C149.321 213.759 150.926 225.817 162.942 225.817C171.353 225.817 178.964 220.411 178.964 210.212C178.964 196.736 154.586 183.184 149.321 163.396C144.311 183.167 119.678 196.736 119.678 210.212C119.678 220.411 127.289 225.817 135.7 225.817Z" fill="#C80000"/>
<path d="M124.572 52.3954C112.556 52.3954 110.951 64.4531 110.951 64.4531C110.951 64.4531 109.347 52.3954 97.3303 52.3954C88.9191 52.3954 81.3083 57.8018 81.3083 68.0007C81.3083 81.4768 105.686 95.0285 110.951 114.817C115.961 95.0451 140.594 81.4768 140.594 68.0007C140.594 57.8018 132.983 52.3954 124.572 52.3954Z" fill="#C80000"/>
<path d="M96.7105 270.815C108.727 270.815 110.331 258.757 110.331 258.757C110.331 258.757 111.936 270.815 123.952 270.815C132.363 270.815 139.974 265.408 139.974 255.209C139.974 241.733 115.596 228.181 110.331 208.393C105.322 228.165 80.6886 241.733 80.6886 255.209C80.6886 265.408 88.2994 270.815 96.7105 270.815Z" fill="#C80000"/>
<path d="M18.1532 19.8843C18.1532 16.2732 18.5212 13.3704 19.2573 11.1759C20.0073 8.96761 21.1115 7.26622 22.5698 6.07178C24.042 4.87733 25.8893 4.28011 28.1115 4.28011C29.7504 4.28011 31.1879 4.61344 32.424 5.28011C33.6601 5.93289 34.6809 6.88428 35.4865 8.13428C36.292 9.37039 36.924 10.8843 37.3823 12.6759C37.8407 14.4537 38.0698 16.8565 38.0698 19.8843C38.0698 23.4676 37.7018 26.3634 36.9657 28.5718C36.2295 30.7662 35.1254 32.4676 33.6532 33.6759C32.1948 34.8704 30.3476 35.4676 28.1115 35.4676C25.167 35.4676 22.8545 34.4121 21.174 32.3009C19.1601 29.7593 18.1532 25.6204 18.1532 19.8843ZM22.0073 19.8843C22.0073 24.8982 22.5907 28.2384 23.7573 29.9051C24.9379 31.5579 26.3893 32.3843 28.1115 32.3843C29.8337 32.3843 31.2782 31.5509 32.4448 29.8843C33.6254 28.2176 34.2157 24.8843 34.2157 19.8843C34.2157 14.8565 33.6254 11.5162 32.4448 9.86344C31.2782 8.21067 29.8198 7.38428 28.0698 7.38428C26.3476 7.38428 24.9726 8.11344 23.9448 9.57178C22.6532 11.4329 22.0073 14.8704 22.0073 19.8843Z" fill="#C80000"/>
<path d="M207.568 286.413H211.318V310.309C212.221 309.448 213.408 308.587 214.88 307.725C216.339 306.864 217.651 306.219 218.818 305.788V309.413C216.721 310.399 214.887 311.594 213.318 312.996C211.748 314.399 210.637 315.76 209.984 317.08H207.568V286.413Z" fill="#C80000"/>
<path d="M203.994 301.799C203.994 305.41 203.626 308.313 202.89 310.507C202.14 312.715 201.036 314.417 199.578 315.611C198.105 316.806 196.258 317.403 194.036 317.403C192.397 317.403 190.96 317.07 189.723 316.403C188.487 315.75 187.467 314.799 186.661 313.549C185.855 312.313 185.223 310.799 184.765 309.007C184.307 307.229 184.078 304.827 184.078 301.799C184.078 298.215 184.446 295.32 185.182 293.111C185.918 290.917 187.022 289.215 188.494 288.007C189.953 286.813 191.8 286.215 194.036 286.215C196.98 286.215 199.293 287.271 200.973 289.382C202.987 291.924 203.994 296.063 203.994 301.799ZM200.14 301.799C200.14 296.785 199.557 293.445 198.39 291.778C197.21 290.125 195.758 289.299 194.036 289.299C192.314 289.299 190.869 290.132 189.703 291.799C188.522 293.465 187.932 296.799 187.932 301.799C187.932 306.827 188.522 310.167 189.703 311.82C190.869 313.472 192.328 314.299 194.078 314.299C195.8 314.299 197.175 313.57 198.203 312.111C199.494 310.25 200.14 306.813 200.14 301.799Z" fill="#C80000"/>
</g>
<defs>
<clipPath id="clip0_14_3165">
<rect width="222.783" height="323.556" fill="white"/>
</clipPath>
</defs>
</svg>
