<svg width="223" height="324" viewBox="0 0 223 324" fill="none" xmlns="http://www.w3.org/2000/svg">
<g clip-path="url(#clip0_14_2231)">
<path d="M222.449 314.064C222.449 319.1 218.333 323.223 213.288 323.223H9.48111C4.44791 323.223 0.333328 319.1 0.333328 314.064V9.49353C0.333328 4.45707 4.44791 0.333374 9.48111 0.333374H213.288C218.333 0.333374 222.449 4.45707 222.449 9.49353V314.064Z" fill="white" stroke="black" stroke-width="0.666667"/>
<path d="M31.9401 27.9469V31.551H11.7526C11.7248 30.6482 11.8706 29.7802 12.1901 28.9469C12.7039 27.5719 13.5234 26.2177 14.6484 24.8844C15.7873 23.551 17.4262 22.0094 19.5651 20.2594C22.8845 17.5371 25.1276 15.3844 26.2942 13.801C27.4609 12.2038 28.0442 10.6969 28.0442 9.28019C28.0442 7.79408 27.5095 6.54408 26.4401 5.53019C25.3845 4.50241 24.0026 3.98852 22.2942 3.98852C20.4887 3.98852 19.0442 4.53019 17.9609 5.61352C16.8776 6.69686 16.3289 8.19686 16.3151 10.1135L12.4609 9.71769C12.7248 6.84269 13.7178 4.65519 15.4401 3.15519C17.1623 1.6413 19.4748 0.884358 22.3776 0.884358C25.3081 0.884358 27.6276 1.69686 29.3359 3.32186C31.0442 4.94686 31.8984 6.96075 31.8984 9.36352C31.8984 10.5857 31.6484 11.7871 31.1484 12.9677C30.6484 14.1482 29.8151 15.3913 28.6484 16.6969C27.4956 18.0024 25.572 19.7941 22.8776 22.0719C20.6276 23.9607 19.1831 25.2455 18.5442 25.926C17.9053 26.5927 17.3776 27.2663 16.9609 27.9469H31.9401Z" fill="#DEA701"/>
<path d="M191.171 296.224V292.62H211.359C211.387 293.523 211.241 294.391 210.921 295.224C210.407 296.599 209.588 297.954 208.463 299.287C207.324 300.62 205.685 302.162 203.546 303.912C200.227 306.634 197.984 308.787 196.817 310.37C195.65 311.967 195.067 313.474 195.067 314.891C195.067 316.377 195.602 317.627 196.671 318.641C197.727 319.669 199.109 320.183 200.817 320.183C202.623 320.183 204.067 319.641 205.15 318.558C206.234 317.474 206.782 315.974 206.796 314.058L210.65 314.454C210.387 317.329 209.394 319.516 207.671 321.016C205.949 322.53 203.637 323.287 200.734 323.287C197.803 323.287 195.484 322.474 193.775 320.849C192.067 319.224 191.213 317.211 191.213 314.808C191.213 313.586 191.463 312.384 191.963 311.204C192.463 310.023 193.296 308.78 194.463 307.474C195.616 306.169 197.539 304.377 200.234 302.099C202.484 300.211 203.928 298.926 204.567 298.245C205.206 297.579 205.734 296.905 206.15 296.224H191.171Z" fill="#DEA701"/>
<path d="M29.0109 49.6763C24.8421 44.0365 22.6241 38.3048 22.6241 38.3048C22.6241 38.3048 20.4061 44.0365 16.2373 49.6763C12.0666 55.3142 6.87045 58.9815 6.87045 58.9815C6.87045 58.9815 12.0666 62.6468 16.2373 68.2886C20.4061 73.9265 22.6241 79.6582 22.6241 79.6582C22.6241 79.6582 24.8421 73.9265 29.0109 68.2886C33.1817 62.6468 38.3778 58.9815 38.3778 58.9815C38.3778 58.9815 33.1817 55.3142 29.0109 49.6763Z" fill="#DEA701"/>
<path d="M207.215 255.366C203.046 249.726 200.828 243.995 200.828 243.995C200.828 243.995 198.61 249.726 194.441 255.366C190.27 261.004 185.074 264.671 185.074 264.671C185.074 264.671 190.27 268.337 194.441 273.978C198.61 279.616 200.828 285.348 200.828 285.348C200.828 285.348 203.046 279.616 207.215 273.978C211.385 268.337 216.582 264.671 216.582 264.671C216.582 264.671 211.385 261.004 207.215 255.366Z" fill="#DEA701"/>
<path d="M121.765 229.055C114.459 219.171 110.572 209.126 110.572 209.126C110.572 209.126 106.685 219.171 99.3787 229.055C92.0694 238.936 82.9632 245.363 82.9632 245.363C82.9632 245.363 92.0694 251.786 99.3787 261.673C106.685 271.554 110.572 281.599 110.572 281.599C110.572 281.599 114.459 271.554 121.765 261.673C129.074 251.786 138.18 245.363 138.18 245.363C138.18 245.363 129.074 238.936 121.765 229.055Z" fill="#DEA701"/>
<path d="M121.765 57.852C114.459 47.9682 110.572 37.9233 110.572 37.9233C110.572 37.9233 106.685 47.9682 99.3787 57.852C92.0694 67.7324 82.9632 74.1594 82.9632 74.1594C82.9632 74.1594 92.0694 80.583 99.3787 90.4702C106.685 100.351 110.572 110.395 110.572 110.395C110.572 110.395 114.459 100.351 121.765 90.4702C129.074 80.583 138.18 74.1594 138.18 74.1594C138.18 74.1594 129.074 67.7324 121.765 57.852Z" fill="#DEA701"/>
</g>
<defs>
<clipPath id="clip0_14_2231">
<rect width="222.783" height="323.556" fill="white"/>
</clipPath>
</defs>
</svg>
