<svg width="223" height="324" viewBox="0 0 223 324" fill="none" xmlns="http://www.w3.org/2000/svg">
<g clip-path="url(#clip0_14_2210)">
<path d="M222.116 313.73C222.116 318.767 218 322.889 212.954 322.889H9.14779C4.11458 322.889 0 318.767 0 313.73V9.16016C0 4.1237 4.11458 0 9.14779 0H212.954C218 0 222.116 4.1237 222.116 9.16016V313.73Z" fill="white" stroke="#047ECF" stroke-width="0.666667"/>
<path d="M32.5599 29.4603V33.0645H12.3724C12.3446 32.1617 12.4904 31.2936 12.8099 30.4603C13.3238 29.0853 14.1432 27.7311 15.2682 26.3978C16.4071 25.0645 18.046 23.5228 20.1849 21.7728C23.5043 19.0506 25.7474 16.8978 26.9141 15.3145C28.0807 13.7172 28.6641 12.2103 28.6641 10.7936C28.6641 9.30751 28.1293 8.05751 27.0599 7.04362C26.0043 6.01584 24.6224 5.50195 22.9141 5.50195C21.1085 5.50195 19.6641 6.04362 18.5807 7.12695C17.4974 8.21029 16.9488 9.71029 16.9349 11.627L13.0807 11.2311C13.3446 8.35612 14.3377 6.16862 16.0599 4.66862C17.7821 3.15473 20.0946 2.39779 22.9974 2.39779C25.9279 2.39779 28.2474 3.21029 29.9557 4.83529C31.6641 6.46029 32.5182 8.47417 32.5182 10.877C32.5182 12.0992 32.2682 13.3006 31.7682 14.4811C31.2682 15.6617 30.4349 16.9047 29.2682 18.2103C28.1154 19.5158 26.1918 21.3075 23.4974 23.5853C21.2474 25.4742 19.8029 26.7589 19.1641 27.4395C18.5252 28.1061 17.9974 28.7797 17.5807 29.4603H32.5599Z" fill="#047ECF"/>
<path d="M27.5878 58.3197C27.5878 58.3197 32.2924 54.556 32.2924 49.3384C32.2924 46.2839 29.5806 41.2129 23.3112 41.2129C17.0417 41.2129 14.3299 46.2859 14.3299 49.3384C14.3299 54.556 19.0345 58.3197 19.0345 58.3197C13.8089 54.249 4.49291 57.0281 4.49291 65.1636C4.49291 69.2362 7.82077 73.7169 13.0463 73.7169C19.3157 73.7169 22.0276 66.873 22.0276 66.873C22.0276 66.873 22.8239 74.6737 18.1787 78.8494H28.4436C23.7984 74.6757 24.5948 66.873 24.5948 66.873C24.5948 66.873 27.3066 73.7169 33.576 73.7169C38.8035 73.7169 42.1294 69.2342 42.1294 65.1636C42.1294 57.0281 32.8134 54.249 27.5878 58.3197Z" fill="#047ECF"/>
<path d="M190.339 293.226V289.622H210.527C210.555 290.525 210.409 291.393 210.089 292.226C209.576 293.601 208.756 294.955 207.631 296.289C206.492 297.622 204.853 299.164 202.714 300.914C199.395 303.636 197.152 305.789 195.985 307.372C194.819 308.969 194.235 310.476 194.235 311.893C194.235 313.379 194.77 314.629 195.839 315.643C196.895 316.671 198.277 317.185 199.985 317.185C201.791 317.185 203.235 316.643 204.319 315.56C205.402 314.476 205.951 312.976 205.964 311.06L209.819 311.455C209.555 314.33 208.562 316.518 206.839 318.018C205.117 319.532 202.805 320.289 199.902 320.289C196.971 320.289 194.652 319.476 192.944 317.851C191.235 316.226 190.381 314.212 190.381 311.81C190.381 310.587 190.631 309.386 191.131 308.205C191.631 307.025 192.464 305.782 193.631 304.476C194.784 303.171 196.707 301.379 199.402 299.101C201.652 297.212 203.096 295.928 203.735 295.247C204.374 294.58 204.902 293.907 205.319 293.226H190.339Z" fill="#047ECF"/>
<path d="M195.311 264.987C195.311 264.987 190.607 268.751 190.607 273.968C190.607 277.023 193.319 282.094 199.588 282.094C205.858 282.094 208.569 277.021 208.569 273.968C208.569 268.751 203.865 264.987 203.865 264.987C209.09 269.058 218.406 266.279 218.406 258.143C218.406 254.07 215.079 249.59 209.853 249.59C203.584 249.59 200.872 256.434 200.872 256.434C200.872 256.434 200.075 248.633 204.721 244.457H194.456C199.101 248.631 198.305 256.434 198.305 256.434C198.305 256.434 195.593 249.59 189.323 249.59C184.096 249.59 180.77 254.072 180.77 258.143C180.77 266.279 190.086 269.058 195.311 264.987Z" fill="#047ECF"/>
<path d="M119.43 73.9999C119.43 73.9999 127.387 67.6347 127.387 58.8105C127.387 53.6446 122.801 45.0684 112.198 45.0684C101.594 45.0684 97.0082 53.648 97.0082 58.8105C97.0082 67.6347 104.965 73.9999 104.965 73.9999C96.1271 67.1154 80.3716 71.8156 80.3716 85.5745C80.3716 92.4623 85.9998 100.04 94.8373 100.04C105.44 100.04 110.027 88.4656 110.027 88.4656C110.027 88.4656 111.373 101.658 103.517 108.72H120.878C113.022 101.662 114.368 88.4656 114.368 88.4656C114.368 88.4656 118.955 100.04 129.558 100.04C138.399 100.04 144.024 92.4589 144.024 85.5745C144.024 71.8156 128.268 67.1154 119.43 73.9999Z" fill="#047ECF"/>
<path d="M105.024 250.992C105.024 250.992 97.0679 257.357 97.0679 266.181C97.0679 271.347 101.654 279.924 112.257 279.924C122.86 279.924 127.447 271.344 127.447 266.181C127.447 257.357 119.49 250.992 119.49 250.992C128.328 257.877 144.083 253.176 144.083 239.417C144.083 232.53 138.455 224.952 129.618 224.952C119.014 224.952 114.428 236.526 114.428 236.526C114.428 236.526 113.081 223.334 120.937 216.272H103.577C111.433 223.33 110.086 236.526 110.086 236.526C110.086 236.526 105.5 224.952 94.8971 224.952C86.0561 224.952 80.4313 232.533 80.4313 239.417C80.4313 253.176 96.1868 257.877 105.024 250.992Z" fill="#047ECF"/>
</g>
<defs>
<clipPath id="clip0_14_2210">
<rect width="222.783" height="323.556" fill="white"/>
</clipPath>
</defs>
</svg>
