<svg width="223" height="324" viewBox="0 0 223 324" fill="none" xmlns="http://www.w3.org/2000/svg">
<g clip-path="url(#clip0_14_2273)">
<path d="M222.449 314.064C222.449 319.1 218.333 323.223 213.288 323.223H9.48111C4.44791 323.223 0.333328 319.1 0.333328 314.064V9.49347C0.333328 4.45701 4.44791 0.333313 9.48111 0.333313H213.288C218.333 0.333313 222.449 4.45701 222.449 9.49347V314.064Z" fill="white" stroke="#323232" stroke-width="0.666667"/>
<path d="M32.8748 30.0802V33.6844H12.6873C12.6595 32.7816 12.8053 31.9136 13.1248 31.0802C13.6387 29.7052 14.4581 28.3511 15.5831 27.0177C16.722 25.6844 18.3609 24.1427 20.4998 22.3927C23.8192 19.6705 26.0623 17.5177 27.2289 15.9344C28.3956 14.3372 28.9789 12.8302 28.9789 11.4136C28.9789 9.92744 28.4442 8.67744 27.3748 7.66355C26.3192 6.63578 24.9373 6.12189 23.2289 6.12189C21.4234 6.12189 19.9789 6.66355 18.8956 7.74689C17.8123 8.83022 17.2637 10.3302 17.2498 12.2469L13.3956 11.8511C13.6595 8.97605 14.6525 6.78855 16.3748 5.28855C18.097 3.77466 20.4095 3.01772 23.3123 3.01772C26.2428 3.01772 28.5623 3.83022 30.2706 5.45522C31.9789 7.08022 32.8331 9.09411 32.8331 11.4969C32.8331 12.7191 32.5831 13.9205 32.0831 15.1011C31.5831 16.2816 30.7498 17.5247 29.5831 18.8302C28.4303 20.1358 26.5067 21.9274 23.8123 24.2052C21.5623 26.0941 20.1178 27.3788 19.4789 28.0594C18.84 28.7261 18.3123 29.3997 17.8956 30.0802H32.8748Z" fill="#323232"/>
<path d="M38.6416 65.7946C38.1548 58.3333 23.0588 44.29 22.5721 40.7773C22.0853 44.2881 6.98928 58.3315 6.5025 65.7946C6.16257 71.0691 9.91193 73.2558 13.3213 73.2558C17.0127 73.2161 20.0615 68.105 21.1117 67.1114C21.5985 68.4282 17.8874 79.4002 16.7288 79.4002H28.4174C27.2588 79.4002 23.5476 68.4282 24.0344 67.1114C24.9539 68.0241 27.6492 73.1028 31.8268 73.2558C35.2342 73.254 38.9815 71.0691 38.6416 65.7946Z" fill="#323232"/>
<path d="M139.428 86.5074C138.574 73.4075 112.069 48.7512 111.215 42.5839C110.36 48.748 83.8554 73.4043 83.0008 86.5074C82.404 95.7681 88.9868 99.6073 94.9728 99.6073C101.454 99.5376 106.807 90.564 108.651 88.8194C109.505 91.1313 102.989 110.395 100.955 110.395H121.477C119.443 110.395 112.927 91.1313 113.782 88.8194C115.396 90.4219 120.129 99.3387 127.463 99.6073C133.446 99.6041 140.025 95.7681 139.428 86.5074Z" fill="#323232"/>
<path d="M190.491 294.103V290.499H210.679C210.706 291.401 210.561 292.269 210.241 293.103C209.727 294.478 208.908 295.832 207.783 297.165C206.644 298.499 205.005 300.04 202.866 301.79C199.547 304.513 197.304 306.665 196.137 308.249C194.97 309.846 194.387 311.353 194.387 312.769C194.387 314.256 194.922 315.506 195.991 316.519C197.047 317.547 198.429 318.061 200.137 318.061C201.943 318.061 203.387 317.519 204.47 316.436C205.554 315.353 206.102 313.853 206.116 311.936L209.97 312.332C209.706 315.207 208.713 317.394 206.991 318.894C205.269 320.408 202.956 321.165 200.054 321.165C197.123 321.165 194.804 320.353 193.095 318.728C191.387 317.103 190.533 315.089 190.533 312.686C190.533 311.464 190.783 310.263 191.283 309.082C191.783 307.901 192.616 306.658 193.783 305.353C194.936 304.047 196.859 302.256 199.554 299.978C201.804 298.089 203.248 296.804 203.887 296.124C204.526 295.457 205.054 294.783 205.47 294.103H190.491Z" fill="#323232"/>
<path d="M184.231 258.352C184.717 265.813 199.813 279.857 200.3 283.369C200.787 279.858 215.883 265.815 216.37 258.352C216.71 253.078 212.96 250.891 209.551 250.891C205.859 250.93 202.811 256.042 201.76 257.035C201.274 255.718 204.985 244.746 206.143 244.746H194.455C195.613 244.746 199.325 255.718 198.838 257.035C197.918 256.123 195.223 251.044 191.045 250.891C187.638 250.893 183.891 253.078 184.231 258.352Z" fill="#323232"/>
<path d="M83.0611 237.676C83.9157 250.775 110.42 275.432 111.275 281.599C112.129 275.435 138.634 250.779 139.489 237.676C140.085 228.415 133.503 224.576 127.517 224.576C121.036 224.645 115.683 233.619 113.839 235.364C112.984 233.052 119.5 213.788 121.534 213.788H101.012C103.046 213.788 109.562 233.052 108.707 235.364C107.093 233.761 102.361 224.844 95.0261 224.576C89.0436 224.579 82.4643 228.415 83.0611 237.676Z" fill="#323232"/>
</g>
<defs>
<clipPath id="clip0_14_2273">
<rect width="222.783" height="323.556" fill="white"/>
</clipPath>
</defs>
</svg>
