<svg width="223" height="324" viewBox="0 0 223 324" fill="none" xmlns="http://www.w3.org/2000/svg">
<g clip-path="url(#clip0_14_2252)">
<path d="M222.449 314.064C222.449 319.1 218.333 323.223 213.288 323.223H9.48111C4.44791 323.223 0.333328 319.1 0.333328 314.064V9.49353C0.333328 4.45707 4.44791 0.333374 9.48111 0.333374H213.288C218.333 0.333374 222.449 4.45707 222.449 9.49353V314.064Z" fill="white" stroke="black" stroke-width="0.666667"/>
<path d="M33.1797 30.0802V33.6843H12.9922C12.9645 32.7815 13.1103 31.9135 13.4297 31.0802C13.9436 29.7052 14.7631 28.351 15.8881 27.0177C17.027 25.6843 18.6658 24.1427 20.8047 22.3927C24.1242 19.6704 26.3672 17.5177 27.5339 15.9343C28.7006 14.3371 29.2839 12.8302 29.2839 11.4135C29.2839 9.92738 28.7492 8.67738 27.6797 7.66349C26.6242 6.63571 25.2422 6.12183 23.5339 6.12183C21.7283 6.12183 20.2839 6.66349 19.2006 7.74683C18.1172 8.83016 17.5686 10.3302 17.5547 12.2468L13.7006 11.851C13.9645 8.97599 14.9575 6.78849 16.6797 5.28849C18.402 3.7746 20.7145 3.01766 23.6172 3.01766C26.5478 3.01766 28.8672 3.83016 30.5756 5.45516C32.2839 7.08016 33.1381 9.09405 33.1381 11.4968C33.1381 12.719 32.8881 13.9204 32.3881 15.101C31.8881 16.2815 31.0547 17.5246 29.8881 18.8302C28.7353 20.1357 26.8117 21.9274 24.1172 24.2052C21.8672 26.094 20.4228 27.3788 19.7839 28.0593C19.145 28.726 18.6172 29.3996 18.2006 30.0802H33.1797Z" fill="#C80000"/>
<path d="M31.1097 43.0432C23.87 43.0432 22.9033 50.3078 22.9033 50.3078C22.9033 50.3078 21.9367 43.0432 14.697 43.0432C9.62944 43.0432 5.04407 46.3005 5.04407 52.4452C5.04407 60.5643 19.7314 68.729 22.9033 80.651C25.9216 68.739 40.7626 60.5643 40.7626 52.4452C40.7626 46.3005 36.1773 43.0432 31.1097 43.0432Z" fill="#C80000"/>
<path d="M190.278 291.958V288.354H210.465C210.493 289.256 210.347 290.124 210.028 290.958C209.514 292.333 208.694 293.687 207.569 295.02C206.43 296.354 204.792 297.895 202.653 299.645C199.333 302.367 197.09 304.52 195.923 306.104C194.757 307.701 194.173 309.208 194.173 310.624C194.173 312.11 194.708 313.36 195.778 314.374C196.833 315.402 198.215 315.916 199.923 315.916C201.729 315.916 203.173 315.374 204.257 314.291C205.34 313.208 205.889 311.708 205.903 309.791L209.757 310.187C209.493 313.062 208.5 315.249 206.778 316.749C205.055 318.263 202.743 319.02 199.84 319.02C196.91 319.02 194.59 318.208 192.882 316.583C191.173 314.958 190.319 312.944 190.319 310.541C190.319 309.319 190.569 308.117 191.069 306.937C191.569 305.756 192.403 304.513 193.569 303.208C194.722 301.902 196.646 300.11 199.34 297.833C201.59 295.944 203.035 294.659 203.673 293.979C204.312 293.312 204.84 292.638 205.257 291.958H190.278Z" fill="#C80000"/>
<path d="M192.002 278.995C199.241 278.995 200.208 271.73 200.208 271.73C200.208 271.73 201.175 278.995 208.414 278.995C213.482 278.995 218.067 275.737 218.067 269.593C218.067 261.474 203.38 253.309 200.208 241.387C197.19 253.299 182.349 261.474 182.349 269.593C182.349 275.737 186.934 278.995 192.002 278.995Z" fill="#C80000"/>
<path d="M125.222 44.6024C113.206 44.6024 111.601 56.6601 111.601 56.6601C111.601 56.6601 109.997 44.6024 97.9806 44.6024C89.5694 44.6024 81.9587 50.0088 81.9587 60.2077C81.9587 73.6838 106.337 87.2355 111.601 107.024C116.611 87.2521 141.244 73.6838 141.244 60.2077C141.244 50.0088 133.633 44.6024 125.222 44.6024Z" fill="#C80000"/>
<path d="M97.9806 278.227C109.997 278.227 111.601 266.169 111.601 266.169C111.601 266.169 113.206 278.227 125.222 278.227C133.633 278.227 141.244 272.82 141.244 262.621C141.244 249.145 116.866 235.594 111.601 215.806C106.592 235.577 81.9587 249.145 81.9587 262.621C81.9587 272.82 89.5695 278.227 97.9806 278.227Z" fill="#C80000"/>
</g>
<defs>
<clipPath id="clip0_14_2252">
<rect width="222.783" height="323.556" fill="white"/>
</clipPath>
</defs>
</svg>
