<svg width="223" height="324" viewBox="0 0 223 324" fill="none" xmlns="http://www.w3.org/2000/svg">
<g clip-path="url(#clip0_14_2363)">
<path d="M222.449 314.064C222.449 319.1 218.333 323.223 213.288 323.223H9.48113C4.44793 323.223 0.333344 319.1 0.333344 314.064V9.49347C0.333344 4.45701 4.44793 0.333313 9.48113 0.333313H213.288C218.333 0.333313 222.449 4.45701 222.449 9.49347V314.064Z" fill="white" stroke="#323232" stroke-width="0.666667"/>
<path d="M13.1873 25.6219L16.9373 25.1219C17.3678 27.2469 18.097 28.7816 19.1248 29.7261C20.1664 30.6566 21.4303 31.1219 22.9164 31.1219C24.6803 31.1219 26.1664 30.5108 27.3748 29.2886C28.597 28.0663 29.2081 26.5524 29.2081 24.7469C29.2081 23.0247 28.6456 21.608 27.5206 20.4969C26.3956 19.3719 24.965 18.8094 23.2289 18.8094C22.5206 18.8094 21.6387 18.9483 20.5831 19.2261L20.9998 15.9344C21.2498 15.9622 21.4512 15.9761 21.6039 15.9761C23.2012 15.9761 24.6387 15.5594 25.9164 14.7261C27.1942 13.8927 27.8331 12.608 27.8331 10.8719C27.8331 9.49689 27.3678 8.358 26.4373 7.45522C25.5067 6.55244 24.3053 6.10105 22.8331 6.10105C21.3748 6.10105 20.1595 6.55939 19.1873 7.47605C18.215 8.39272 17.59 9.76772 17.3123 11.6011L13.5623 10.9344C14.0206 8.4205 15.0623 6.47605 16.6873 5.10105C18.3123 3.71216 20.3331 3.01772 22.7498 3.01772C24.4164 3.01772 25.9512 3.37883 27.3539 4.10105C28.7567 4.80939 29.8262 5.78161 30.5623 7.01772C31.3123 8.25383 31.6873 9.56633 31.6873 10.9552C31.6873 12.2747 31.3331 13.4761 30.6248 14.5594C29.9164 15.6427 28.8678 16.5038 27.4789 17.1427C29.2845 17.5594 30.6873 18.4274 31.6873 19.7469C32.6873 21.0524 33.1873 22.6913 33.1873 24.6636C33.1873 27.3302 32.215 29.5941 30.2706 31.4552C28.3262 33.3024 25.8678 34.2261 22.8956 34.2261C20.215 34.2261 17.9859 33.4274 16.2081 31.8302C14.4442 30.233 13.4373 28.1636 13.1873 25.6219Z" fill="#323232"/>
<path d="M38.6417 65.7946C38.1549 58.3333 23.0589 44.29 22.5722 40.7773C22.0854 44.2881 6.98938 58.3315 6.5026 65.7946C6.16267 71.0691 9.91203 73.2558 13.3214 73.2558C17.0128 73.2161 20.0616 68.105 21.1118 67.1114C21.5986 68.4282 17.8875 79.4002 16.7289 79.4002H28.4175C27.2589 79.4002 23.5477 68.4282 24.0345 67.1114C24.954 68.0241 27.6493 73.1028 31.8269 73.2558C35.2343 73.254 38.9816 71.0691 38.6417 65.7946Z" fill="#323232"/>
<path d="M139.428 75.8408C138.574 62.7409 112.069 38.0846 111.215 31.9173C110.36 38.0814 83.8554 62.7377 83.0008 75.8408C82.404 85.1014 88.9868 88.9407 94.9728 88.9407C101.454 88.871 106.807 79.8974 108.651 78.1527C109.505 80.4647 102.989 99.7286 100.955 99.7286H121.477C119.443 99.7286 112.927 80.4647 113.782 78.1527C115.396 79.7553 120.129 88.6721 127.463 88.9407C133.446 88.9374 140.025 85.1014 139.428 75.8408Z" fill="#323232"/>
<path d="M210.179 298.561L206.429 299.061C205.998 296.936 205.269 295.401 204.241 294.457C203.2 293.526 201.936 293.061 200.45 293.061C198.686 293.061 197.2 293.672 195.991 294.894C194.769 296.117 194.158 297.631 194.158 299.436C194.158 301.158 194.72 302.575 195.845 303.686C196.97 304.811 198.401 305.374 200.137 305.374C200.845 305.374 201.727 305.235 202.783 304.957L202.366 308.249C202.116 308.221 201.915 308.207 201.762 308.207C200.165 308.207 198.727 308.624 197.45 309.457C196.172 310.29 195.533 311.575 195.533 313.311C195.533 314.686 195.998 315.825 196.929 316.728C197.859 317.631 199.061 318.082 200.533 318.082C201.991 318.082 203.206 317.624 204.179 316.707C205.151 315.79 205.776 314.415 206.054 312.582L209.804 313.249C209.345 315.763 208.304 317.707 206.679 319.082C205.054 320.471 203.033 321.165 200.616 321.165C198.95 321.165 197.415 320.804 196.012 320.082C194.609 319.374 193.54 318.401 192.804 317.165C192.054 315.929 191.679 314.617 191.679 313.228C191.679 311.908 192.033 310.707 192.741 309.624C193.45 308.54 194.498 307.679 195.887 307.04C194.081 306.624 192.679 305.756 191.679 304.436C190.679 303.131 190.179 301.492 190.179 299.519C190.179 296.853 191.151 294.589 193.095 292.728C195.04 290.881 197.498 289.957 200.47 289.957C203.151 289.957 205.38 290.756 207.158 292.353C208.922 293.95 209.929 296.019 210.179 298.561Z" fill="#323232"/>
<path d="M184.231 258.352C184.717 265.813 199.813 279.857 200.3 283.369C200.787 279.858 215.883 265.815 216.37 258.352C216.71 253.078 212.96 250.891 209.551 250.891C205.859 250.93 202.811 256.042 201.76 257.035C201.274 255.718 204.985 244.746 206.143 244.746H194.455C195.613 244.746 199.325 255.718 198.838 257.035C197.918 256.123 195.223 251.044 191.045 250.891C187.638 250.893 183.891 253.078 184.231 258.352Z" fill="#323232"/>
<path d="M83.0611 248.342C83.9158 261.442 110.42 286.099 111.275 292.266C112.129 286.102 138.634 261.445 139.489 248.342C140.085 239.082 133.503 235.242 127.517 235.242C121.036 235.312 115.683 244.286 113.839 246.03C112.984 243.718 119.5 224.454 121.534 224.454H101.012C103.046 224.454 109.562 243.718 108.707 246.03C107.093 244.428 102.361 235.511 95.0261 235.242C89.0436 235.246 82.4643 239.082 83.0611 248.342Z" fill="#323232"/>
<path d="M139.54 168.776C138.685 155.676 112.181 131.02 111.326 124.852C110.472 131.016 83.9672 155.673 83.1125 168.776C82.5157 178.037 89.0985 181.876 95.0846 181.876C101.566 181.806 106.918 172.832 108.762 171.088C109.617 173.4 103.101 192.664 101.067 192.664H121.589C119.555 192.664 113.039 173.4 113.894 171.088C115.508 172.69 120.24 181.607 127.575 181.876C133.557 181.873 140.137 178.037 139.54 168.776Z" fill="#323232"/>
</g>
<defs>
<clipPath id="clip0_14_2363">
<rect width="222.783" height="323.556" fill="white"/>
</clipPath>
</defs>
</svg>
