<svg width="223" height="324" viewBox="0 0 223 324" fill="none" xmlns="http://www.w3.org/2000/svg">
<g clip-path="url(#clip0_14_2317)">
<path d="M222.449 314.064C222.449 319.1 218.333 323.223 213.288 323.223H9.48113C4.44793 323.223 0.333344 319.1 0.333344 314.064V9.49353C0.333344 4.45707 4.44793 0.333374 9.48113 0.333374H213.288C218.333 0.333374 222.449 4.45707 222.449 9.49353V314.064Z" fill="white" stroke="black" stroke-width="0.666667"/>
<path d="M12.2525 23.4885L16.0025 22.9885C16.4331 25.1135 17.1623 26.6482 18.19 27.5927C19.2317 28.5232 20.4956 28.9885 21.9817 28.9885C23.7456 28.9885 25.2317 28.3774 26.44 27.1552C27.6623 25.933 28.2734 24.4191 28.2734 22.6135C28.2734 20.8913 27.7109 19.4746 26.5859 18.3635C25.4609 17.2385 24.0303 16.676 22.2942 16.676C21.5859 16.676 20.7039 16.8149 19.6484 17.0927L20.065 13.801C20.315 13.8288 20.5164 13.8427 20.6692 13.8427C22.2664 13.8427 23.7039 13.426 24.9817 12.5927C26.2595 11.7594 26.8984 10.4746 26.8984 8.73852C26.8984 7.36352 26.4331 6.22464 25.5025 5.32186C24.572 4.41908 23.3706 3.96769 21.8984 3.96769C20.44 3.96769 19.2248 4.42602 18.2525 5.34269C17.2803 6.25936 16.6553 7.63436 16.3775 9.46769L12.6275 8.80102C13.0859 6.28714 14.1275 4.34269 15.7525 2.96769C17.3775 1.5788 19.3984 0.884358 21.815 0.884358C23.4817 0.884358 25.0164 1.24547 26.4192 1.96769C27.822 2.67602 28.8914 3.64825 29.6275 4.88436C30.3775 6.12047 30.7525 7.43297 30.7525 8.82186C30.7525 10.1413 30.3984 11.3427 29.69 12.426C28.9817 13.5094 27.9331 14.3705 26.5442 15.0094C28.3498 15.426 29.7525 16.2941 30.7525 17.6135C31.7525 18.9191 32.2525 20.558 32.2525 22.5302C32.2525 25.1969 31.2803 27.4607 29.3359 29.3219C27.3914 31.1691 24.9331 32.0927 21.9609 32.0927C19.2803 32.0927 17.0512 31.2941 15.2734 29.6969C13.5095 28.0996 12.5025 26.0302 12.2525 23.4885Z" fill="#DEA701"/>
<path d="M210.859 300.683L207.109 301.183C206.678 299.058 205.949 297.523 204.921 296.579C203.88 295.648 202.616 295.183 201.13 295.183C199.366 295.183 197.88 295.794 196.671 297.016C195.449 298.238 194.838 299.752 194.838 301.558C194.838 303.28 195.401 304.697 196.526 305.808C197.651 306.933 199.081 307.495 200.817 307.495C201.526 307.495 202.407 307.356 203.463 307.079L203.046 310.37C202.796 310.342 202.595 310.329 202.442 310.329C200.845 310.329 199.407 310.745 198.13 311.579C196.852 312.412 196.213 313.697 196.213 315.433C196.213 316.808 196.678 317.947 197.609 318.849C198.539 319.752 199.741 320.204 201.213 320.204C202.671 320.204 203.887 319.745 204.859 318.829C205.831 317.912 206.456 316.537 206.734 314.704L210.484 315.37C210.026 317.884 208.984 319.829 207.359 321.204C205.734 322.592 203.713 323.287 201.296 323.287C199.63 323.287 198.095 322.926 196.692 322.204C195.289 321.495 194.22 320.523 193.484 319.287C192.734 318.051 192.359 316.738 192.359 315.349C192.359 314.03 192.713 312.829 193.421 311.745C194.13 310.662 195.178 309.801 196.567 309.162C194.762 308.745 193.359 307.877 192.359 306.558C191.359 305.252 190.859 303.613 190.859 301.641C190.859 298.974 191.831 296.711 193.776 294.849C195.72 293.002 198.178 292.079 201.151 292.079C203.831 292.079 206.06 292.877 207.838 294.474C209.602 296.072 210.609 298.141 210.859 300.683Z" fill="#DEA701"/>
<path d="M29.0109 49.6763C24.8421 44.0365 22.6241 38.3048 22.6241 38.3048C22.6241 38.3048 20.4061 44.0365 16.2373 49.6763C12.0666 55.3142 6.87045 58.9815 6.87045 58.9815C6.87045 58.9815 12.0666 62.6468 16.2373 68.2886C20.4061 73.9265 22.6241 79.6582 22.6241 79.6582C22.6241 79.6582 24.8421 73.9265 29.0109 68.2886C33.1817 62.6468 38.3778 58.9815 38.3778 58.9815C38.3778 58.9815 33.1817 55.3142 29.0109 49.6763Z" fill="#DEA701"/>
<path d="M207.215 255.366C203.046 249.726 200.828 243.995 200.828 243.995C200.828 243.995 198.61 249.726 194.441 255.366C190.27 261.004 185.074 264.671 185.074 264.671C185.074 264.671 190.27 268.337 194.441 273.978C198.61 279.616 200.828 285.348 200.828 285.348C200.828 285.348 203.046 279.616 207.215 273.978C211.385 268.337 216.582 264.671 216.582 264.671C216.582 264.671 211.385 261.004 207.215 255.366Z" fill="#DEA701"/>
<path d="M121.765 239.722C114.459 229.838 110.572 219.793 110.572 219.793C110.572 219.793 106.685 229.838 99.3787 239.722C92.0694 249.602 82.9632 256.029 82.9632 256.029C82.9632 256.029 92.0694 262.453 99.3787 272.34C106.685 282.22 110.572 292.265 110.572 292.265C110.572 292.265 114.459 282.22 121.765 272.34C129.074 262.453 138.18 256.029 138.18 256.029C138.18 256.029 129.074 249.602 121.765 239.722Z" fill="#DEA701"/>
<path d="M121.765 51.452C114.459 41.5682 110.572 31.5233 110.572 31.5233C110.572 31.5233 106.685 41.5682 99.3787 51.452C92.0694 61.3324 82.9632 67.7594 82.9632 67.7594C82.9632 67.7594 92.0694 74.1829 99.3787 84.0702C106.685 93.9506 110.572 103.995 110.572 103.995C110.572 103.995 114.459 93.9506 121.765 84.0702C129.074 74.1829 138.18 67.7594 138.18 67.7594C138.18 67.7594 129.074 61.3324 121.765 51.452Z" fill="#DEA701"/>
<path d="M121.765 144.386C114.459 134.503 110.572 124.458 110.572 124.458C110.572 124.458 106.685 134.503 99.3787 144.386C92.0694 154.267 82.9632 160.694 82.9632 160.694C82.9632 160.694 92.0694 167.117 99.3787 177.005C106.685 186.885 110.572 196.93 110.572 196.93C110.572 196.93 114.459 186.885 121.765 177.005C129.074 167.117 138.18 160.694 138.18 160.694C138.18 160.694 129.074 154.267 121.765 144.386Z" fill="#DEA701"/>
</g>
<defs>
<clipPath id="clip0_14_2317">
<rect width="222.783" height="323.556" fill="white"/>
</clipPath>
</defs>
</svg>
