<svg width="223" height="324" viewBox="0 0 223 324" fill="none" xmlns="http://www.w3.org/2000/svg">
<g clip-path="url(#clip0_14_2294)">
<path d="M222.449 314.064C222.449 319.1 218.333 323.223 213.288 323.223H9.48113C4.44793 323.223 0.333344 319.1 0.333344 314.064V9.49341C0.333344 4.45695 4.44793 0.333252 9.48113 0.333252H213.288C218.333 0.333252 222.449 4.45695 222.449 9.49341V314.064Z" fill="white" stroke="#047ECF" stroke-width="0.666667"/>
<path d="M12.8724 25.002L16.6224 24.502C17.0529 26.627 17.7821 28.1617 18.8099 29.1061C19.8516 30.0367 21.1154 30.502 22.6016 30.502C24.3654 30.502 25.8516 29.8908 27.0599 28.6686C28.2821 27.4464 28.8932 25.9325 28.8932 24.127C28.8932 22.4047 28.3307 20.9881 27.2057 19.877C26.0807 18.752 24.6502 18.1895 22.9141 18.1895C22.2057 18.1895 21.3238 18.3283 20.2682 18.6061L20.6849 15.3145C20.9349 15.3422 21.1363 15.3561 21.2891 15.3561C22.8863 15.3561 24.3238 14.9395 25.6016 14.1061C26.8793 13.2728 27.5182 11.9881 27.5182 10.252C27.5182 8.87695 27.0529 7.73806 26.1224 6.83529C25.1918 5.93251 23.9904 5.48112 22.5182 5.48112C21.0599 5.48112 19.8446 5.93945 18.8724 6.85612C17.9002 7.77279 17.2752 9.14779 16.9974 10.9811L13.2474 10.3145C13.7057 7.80056 14.7474 5.85612 16.3724 4.48112C17.9974 3.09223 20.0182 2.39779 22.4349 2.39779C24.1016 2.39779 25.6363 2.7589 27.0391 3.48112C28.4418 4.18945 29.5113 5.16167 30.2474 6.39779C30.9974 7.6339 31.3724 8.9464 31.3724 10.3353C31.3724 11.6547 31.0182 12.8561 30.3099 13.9395C29.6016 15.0228 28.5529 15.8839 27.1641 16.5228C28.9696 16.9395 30.3724 17.8075 31.3724 19.127C32.3724 20.4325 32.8724 22.0714 32.8724 24.0436C32.8724 26.7103 31.9002 28.9742 29.9557 30.8353C28.0113 32.6825 25.5529 33.6061 22.5807 33.6061C19.9002 33.6061 17.671 32.8075 15.8932 31.2103C14.1293 29.6131 13.1224 27.5436 12.8724 25.002Z" fill="#047ECF"/>
<path d="M27.5879 58.3197C27.5879 58.3197 32.2924 54.556 32.2924 49.3384C32.2924 46.2839 29.5806 41.2129 23.3112 41.2129C17.0417 41.2129 14.3299 46.2859 14.3299 49.3384C14.3299 54.556 19.0345 58.3197 19.0345 58.3197C13.8089 54.249 4.49292 57.0281 4.49292 65.1636C4.49292 69.2362 7.82078 73.7169 13.0463 73.7169C19.3158 73.7169 22.0276 66.873 22.0276 66.873C22.0276 66.873 22.8239 74.6737 18.1787 78.8494H28.4436C23.7985 74.6757 24.5948 66.873 24.5948 66.873C24.5948 66.873 27.3066 73.7169 33.576 73.7169C38.8035 73.7169 42.1294 69.2342 42.1294 65.1636C42.1294 57.0281 32.8134 54.249 27.5879 58.3197Z" fill="#047ECF"/>
<path d="M210.027 297.685L206.277 298.185C205.846 296.06 205.117 294.525 204.089 293.58C203.048 292.65 201.784 292.185 200.298 292.185C198.534 292.185 197.048 292.796 195.839 294.018C194.617 295.24 194.006 296.754 194.006 298.56C194.006 300.282 194.569 301.698 195.694 302.81C196.819 303.935 198.249 304.497 199.985 304.497C200.694 304.497 201.576 304.358 202.631 304.08L202.214 307.372C201.964 307.344 201.763 307.33 201.61 307.33C200.013 307.33 198.576 307.747 197.298 308.58C196.02 309.414 195.381 310.698 195.381 312.435C195.381 313.81 195.846 314.948 196.777 315.851C197.707 316.754 198.909 317.205 200.381 317.205C201.839 317.205 203.055 316.747 204.027 315.83C204.999 314.914 205.624 313.539 205.902 311.705L209.652 312.372C209.194 314.886 208.152 316.83 206.527 318.205C204.902 319.594 202.881 320.289 200.464 320.289C198.798 320.289 197.263 319.928 195.86 319.205C194.457 318.497 193.388 317.525 192.652 316.289C191.902 315.053 191.527 313.74 191.527 312.351C191.527 311.032 191.881 309.83 192.589 308.747C193.298 307.664 194.346 306.803 195.735 306.164C193.93 305.747 192.527 304.879 191.527 303.56C190.527 302.254 190.027 300.615 190.027 298.643C190.027 295.976 190.999 293.712 192.944 291.851C194.888 290.004 197.346 289.08 200.319 289.08C202.999 289.08 205.228 289.879 207.006 291.476C208.77 293.073 209.777 295.143 210.027 297.685Z" fill="#047ECF"/>
<path d="M195.311 264.987C195.311 264.987 190.607 268.751 190.607 273.968C190.607 277.023 193.319 282.094 199.588 282.094C205.858 282.094 208.569 277.021 208.569 273.968C208.569 268.751 203.865 264.987 203.865 264.987C209.09 269.058 218.406 266.279 218.406 258.143C218.406 254.07 215.079 249.59 209.853 249.59C203.584 249.59 200.872 256.434 200.872 256.434C200.872 256.434 200.075 248.633 204.721 244.457H194.456C199.101 248.631 198.305 256.434 198.305 256.434C198.305 256.434 195.593 249.59 189.323 249.59C184.096 249.59 180.77 254.072 180.77 258.143C180.77 266.279 190.086 269.058 195.311 264.987Z" fill="#047ECF"/>
<path d="M119.43 63.3334C119.43 63.3334 127.387 56.9682 127.387 48.144C127.387 42.9781 122.801 34.4019 112.198 34.4019C101.594 34.4019 97.0082 42.9815 97.0082 48.144C97.0082 56.9682 104.965 63.3334 104.965 63.3334C96.1271 56.4489 80.3716 61.1491 80.3716 74.908C80.3716 81.7958 85.9998 89.3737 94.8373 89.3737C105.44 89.3737 110.027 77.7991 110.027 77.7991C110.027 77.7991 111.373 90.9918 103.517 98.0538H120.878C113.022 90.9952 114.368 77.7991 114.368 77.7991C114.368 77.7991 118.955 89.3737 129.558 89.3737C138.399 89.3737 144.024 81.7924 144.024 74.908C144.024 61.1491 128.268 56.4489 119.43 63.3334Z" fill="#047ECF"/>
<path d="M105.024 261.659C105.024 261.659 97.0679 268.024 97.0679 276.848C97.0679 282.014 101.654 290.59 112.257 290.59C122.86 290.59 127.447 282.011 127.447 276.848C127.447 268.024 119.49 261.659 119.49 261.659C128.328 268.543 144.083 263.843 144.083 250.084C144.083 243.196 138.455 235.618 129.618 235.618C119.014 235.618 114.428 247.193 114.428 247.193C114.428 247.193 113.081 234 120.937 226.938H103.577C111.433 233.997 110.086 247.193 110.086 247.193C110.086 247.193 105.5 235.618 94.897 235.618C86.0561 235.618 80.4313 243.2 80.4313 250.084C80.4313 263.843 96.1868 268.543 105.024 261.659Z" fill="#047ECF"/>
<path d="M119.43 156.268C119.43 156.268 127.387 149.902 127.387 141.078C127.387 135.912 122.801 127.336 112.198 127.336C101.594 127.336 97.0082 135.916 97.0082 141.078C97.0082 149.902 104.965 156.268 104.965 156.268C96.1271 149.383 80.3716 154.083 80.3716 167.842C80.3716 174.73 85.9998 182.308 94.8373 182.308C105.44 182.308 110.027 170.733 110.027 170.733C110.027 170.733 111.373 183.926 103.517 190.988H120.878C113.022 183.929 114.368 170.733 114.368 170.733C114.368 170.733 118.955 182.308 129.558 182.308C138.399 182.308 144.024 174.727 144.024 167.842C144.024 154.083 128.268 149.383 119.43 156.268Z" fill="#047ECF"/>
</g>
<defs>
<clipPath id="clip0_14_2294">
<rect width="222.783" height="323.556" fill="white"/>
</clipPath>
</defs>
</svg>
