<svg width="223" height="324" viewBox="0 0 223 324" fill="none" xmlns="http://www.w3.org/2000/svg">
<g clip-path="url(#clip0_14_2340)">
<path d="M222.449 314.064C222.449 319.1 218.333 323.223 213.288 323.223H9.48113C4.44793 323.223 0.333344 319.1 0.333344 314.064V9.49353C0.333344 4.45707 4.44793 0.333374 9.48113 0.333374H213.288C218.333 0.333374 222.449 4.45707 222.449 9.49353V314.064Z" fill="white" stroke="black" stroke-width="0.666667"/>
<path d="M13.4922 25.6218L17.2422 25.1218C17.6728 27.2468 18.402 28.7815 19.4297 29.726C20.4714 30.6565 21.7353 31.1218 23.2214 31.1218C24.9853 31.1218 26.4714 30.5107 27.6797 29.2885C28.902 28.0663 29.5131 26.5524 29.5131 24.7468C29.5131 23.0246 28.9506 21.6079 27.8256 20.4968C26.7006 19.3718 25.27 18.8093 23.5339 18.8093C22.8256 18.8093 21.9436 18.9482 20.8881 19.226L21.3047 15.9343C21.5547 15.9621 21.7561 15.976 21.9089 15.976C23.5061 15.976 24.9436 15.5593 26.2214 14.726C27.4992 13.8927 28.1381 12.6079 28.1381 10.8718C28.1381 9.49683 27.6728 8.35794 26.7422 7.45516C25.8117 6.55238 24.6103 6.10099 23.1381 6.10099C21.6797 6.10099 20.4645 6.55933 19.4922 7.47599C18.52 8.39266 17.895 9.76766 17.6172 11.601L13.8672 10.9343C14.3256 8.42044 15.3672 6.47599 16.9922 5.10099C18.6172 3.7121 20.6381 3.01766 23.0547 3.01766C24.7214 3.01766 26.2561 3.37877 27.6589 4.10099C29.0617 4.80933 30.1311 5.78155 30.8672 7.01766C31.6172 8.25377 31.9922 9.56627 31.9922 10.9552C31.9922 12.2746 31.6381 13.476 30.9297 14.5593C30.2214 15.6427 29.1728 16.5038 27.7839 17.1427C29.5895 17.5593 30.9922 18.4274 31.9922 19.7468C32.9922 21.0524 33.4922 22.6913 33.4922 24.6635C33.4922 27.3302 32.52 29.594 30.5756 31.4552C28.6311 33.3024 26.1728 34.226 23.2006 34.226C20.52 34.226 18.2908 33.4274 16.5131 31.8302C14.7492 30.2329 13.7422 28.1635 13.4922 25.6218Z" fill="#C80000"/>
<path d="M31.1097 43.0432C23.87 43.0432 22.9033 50.3078 22.9033 50.3078C22.9033 50.3078 21.9367 43.0432 14.697 43.0432C9.62944 43.0432 5.04407 46.3005 5.04407 52.4452C5.04407 60.5643 19.7314 68.729 22.9033 80.651C25.9216 68.739 40.7626 60.5643 40.7626 52.4452C40.7626 46.3005 36.1773 43.0432 31.1097 43.0432Z" fill="#C80000"/>
<path d="M209.965 296.416L206.215 296.916C205.785 294.791 205.055 293.256 204.028 292.312C202.986 291.381 201.722 290.916 200.236 290.916C198.472 290.916 196.986 291.527 195.778 292.749C194.555 293.972 193.944 295.485 193.944 297.291C193.944 299.013 194.507 300.43 195.632 301.541C196.757 302.666 198.187 303.229 199.924 303.229C200.632 303.229 201.514 303.09 202.569 302.812L202.153 306.104C201.903 306.076 201.701 306.062 201.549 306.062C199.951 306.062 198.514 306.479 197.236 307.312C195.958 308.145 195.319 309.43 195.319 311.166C195.319 312.541 195.785 313.68 196.715 314.583C197.646 315.485 198.847 315.937 200.319 315.937C201.778 315.937 202.993 315.479 203.965 314.562C204.937 313.645 205.562 312.27 205.84 310.437L209.59 311.104C209.132 313.617 208.09 315.562 206.465 316.937C204.84 318.326 202.819 319.02 200.403 319.02C198.736 319.02 197.201 318.659 195.799 317.937C194.396 317.229 193.326 316.256 192.59 315.02C191.84 313.784 191.465 312.472 191.465 311.083C191.465 309.763 191.819 308.562 192.528 307.479C193.236 306.395 194.285 305.534 195.674 304.895C193.868 304.479 192.465 303.61 191.465 302.291C190.465 300.985 189.965 299.347 189.965 297.374C189.965 294.708 190.937 292.444 192.882 290.583C194.826 288.735 197.285 287.812 200.257 287.812C202.937 287.812 205.167 288.61 206.944 290.208C208.708 291.805 209.715 293.874 209.965 296.416Z" fill="#C80000"/>
<path d="M192.002 278.995C199.241 278.995 200.208 271.73 200.208 271.73C200.208 271.73 201.175 278.995 208.414 278.995C213.482 278.995 218.067 275.737 218.067 269.593C218.067 261.474 203.38 253.309 200.208 241.387C197.19 253.299 182.349 261.474 182.349 269.593C182.349 275.737 186.934 278.995 192.002 278.995Z" fill="#C80000"/>
<path d="M124.704 32.261C112.687 32.261 111.083 44.3187 111.083 44.3187C111.083 44.3187 109.479 32.261 97.4622 32.261C89.051 32.261 81.4402 37.6674 81.4402 47.8663C81.4402 61.3424 105.818 74.8941 111.083 94.6823C116.093 74.9107 140.726 61.3424 140.726 47.8663C140.726 37.6674 133.115 32.261 124.704 32.261Z" fill="#C80000"/>
<path d="M97.4622 287.219C109.479 287.219 111.083 275.161 111.083 275.161C111.083 275.161 112.687 287.219 124.704 287.219C133.115 287.219 140.726 281.812 140.726 271.614C140.726 258.137 116.348 244.586 111.083 224.798C106.073 244.569 81.4403 258.137 81.4403 271.614C81.4403 281.812 89.051 287.219 97.4622 287.219Z" fill="#C80000"/>
<path d="M124.704 127.329C112.687 127.329 111.083 139.386 111.083 139.386C111.083 139.386 109.479 127.329 97.4622 127.329C89.051 127.329 81.4402 132.735 81.4402 142.934C81.4402 156.41 105.818 169.962 111.083 189.75C116.093 169.978 140.726 156.41 140.726 142.934C140.726 132.735 133.115 127.329 124.704 127.329Z" fill="#C80000"/>
</g>
<defs>
<clipPath id="clip0_14_2340">
<rect width="222.783" height="323.556" fill="white"/>
</clipPath>
</defs>
</svg>
