<svg width="223" height="324" viewBox="0 0 223 324" fill="none" xmlns="http://www.w3.org/2000/svg">
<g clip-path="url(#clip0_14_2386)">
<path d="M222.449 314.064C222.449 319.1 218.333 323.223 213.288 323.223H9.4811C4.4479 323.223 0.333313 319.1 0.333313 314.064V9.49341C0.333313 4.45695 4.4479 0.333252 9.4811 0.333252H213.288C218.333 0.333252 222.449 4.45695 222.449 9.49341V314.064Z" fill="white" stroke="#047ECF" stroke-width="0.666667"/>
<path d="M24.8724 33.0645V25.752H11.6224V22.3145L25.5599 2.52279H28.6224V22.3145H32.7474V25.752H28.6224V33.0645H24.8724ZM24.8724 22.3145V8.54362L15.3099 22.3145H24.8724Z" fill="#047ECF"/>
<path d="M27.5879 58.3197C27.5879 58.3197 32.2924 54.556 32.2924 49.3384C32.2924 46.2839 29.5806 41.2129 23.3112 41.2129C17.0417 41.2129 14.3299 46.2859 14.3299 49.3384C14.3299 54.556 19.0345 58.3197 19.0345 58.3197C13.8089 54.249 4.49292 57.0281 4.49292 65.1636C4.49292 69.2362 7.82078 73.7169 13.0463 73.7169C19.3158 73.7169 22.0276 66.873 22.0276 66.873C22.0276 66.873 22.8239 74.6737 18.1787 78.8494H28.4436C23.7985 74.6757 24.5948 66.873 24.5948 66.873C24.5948 66.873 27.3066 73.7169 33.576 73.7169C38.8035 73.7169 42.1294 69.2342 42.1294 65.1636C42.1294 57.0281 32.8134 54.249 27.5879 58.3197Z" fill="#047ECF"/>
<path d="M198.027 289.622V296.935H211.277V300.372L197.339 320.164H194.277V300.372H190.152V296.935H194.277V289.622H198.027ZM198.027 300.372V314.143L207.589 300.372H198.027Z" fill="#047ECF"/>
<path d="M195.311 264.987C195.311 264.987 190.607 268.751 190.607 273.968C190.607 277.023 193.319 282.094 199.588 282.094C205.858 282.094 208.569 277.021 208.569 273.968C208.569 268.751 203.865 264.987 203.865 264.987C209.09 269.058 218.406 266.279 218.406 258.143C218.406 254.07 215.079 249.59 209.853 249.59C203.584 249.59 200.872 256.434 200.872 256.434C200.872 256.434 200.075 248.633 204.721 244.457H194.456C199.101 248.631 198.305 256.434 198.305 256.434C198.305 256.434 195.593 249.59 189.323 249.59C184.096 249.59 180.77 254.072 180.77 258.143C180.77 266.279 190.086 269.058 195.311 264.987Z" fill="#047ECF"/>
<path d="M78.8971 73.9999C78.8971 73.9999 86.8536 67.6347 86.8536 58.8105C86.8536 53.6446 82.2673 45.0684 71.6642 45.0684C61.0612 45.0684 56.4749 53.648 56.4749 58.8105C56.4749 67.6347 64.4314 73.9999 64.4314 73.9999C55.5938 67.1154 39.8383 71.8156 39.8383 85.5745C39.8383 92.4623 45.4664 100.04 54.304 100.04C64.9071 100.04 69.4934 88.4656 69.4934 88.4656C69.4934 88.4656 70.8401 101.658 62.9841 108.72H80.3444C72.4884 101.662 73.8351 88.4656 73.8351 88.4656C73.8351 88.4656 78.4214 100.04 89.0245 100.04C97.8654 100.04 103.49 92.4589 103.49 85.5745C103.49 71.8156 87.7347 67.1154 78.8971 73.9999Z" fill="#047ECF"/>
<path d="M64.4911 250.992C64.4911 250.992 56.5346 257.357 56.5346 266.181C56.5346 271.347 61.1209 279.924 71.7239 279.924C82.327 279.924 86.9133 271.344 86.9133 266.181C86.9133 257.357 78.9568 250.992 78.9568 250.992C87.7944 257.877 103.55 253.176 103.55 239.417C103.55 232.53 97.9217 224.952 89.0842 224.952C78.4811 224.952 73.8948 236.526 73.8948 236.526C73.8948 236.526 72.5481 223.334 80.4041 216.272H63.0438C70.8998 223.33 69.5531 236.526 69.5531 236.526C69.5531 236.526 64.9668 224.952 54.3637 224.952C45.5228 224.952 39.898 232.533 39.898 239.417C39.898 253.176 55.6535 257.877 64.4911 250.992Z" fill="#047ECF"/>
<path d="M156.333 73.9999C156.333 73.9999 164.289 67.6347 164.289 58.8105C164.289 53.6446 159.703 45.0684 149.1 45.0684C138.497 45.0684 133.911 53.648 133.911 58.8105C133.911 67.6347 141.867 73.9999 141.867 73.9999C133.03 67.1154 117.274 71.8156 117.274 85.5745C117.274 92.4623 122.902 100.04 131.74 100.04C142.343 100.04 146.929 88.4656 146.929 88.4656C146.929 88.4656 148.276 101.658 140.42 108.72H157.78C149.924 101.662 151.271 88.4656 151.271 88.4656C151.271 88.4656 155.857 100.04 166.46 100.04C175.301 100.04 180.926 92.4589 180.926 85.5745C180.926 71.8156 165.17 67.1154 156.333 73.9999Z" fill="#047ECF"/>
<path d="M141.927 250.992C141.927 250.992 133.97 257.357 133.97 266.181C133.97 271.347 138.557 279.924 149.16 279.924C159.763 279.924 164.349 271.344 164.349 266.181C164.349 257.357 156.393 250.992 156.393 250.992C165.23 257.877 180.986 253.176 180.986 239.417C180.986 232.53 175.357 224.952 166.52 224.952C155.917 224.952 151.331 236.526 151.331 236.526C151.331 236.526 149.984 223.334 157.84 216.272H140.48C148.336 223.33 146.989 236.526 146.989 236.526C146.989 236.526 142.403 224.952 131.799 224.952C122.959 224.952 117.334 232.533 117.334 239.417C117.334 253.176 133.089 257.877 141.927 250.992Z" fill="#047ECF"/>
</g>
<defs>
<clipPath id="clip0_14_2386">
<rect width="222.783" height="323.556" fill="white"/>
</clipPath>
</defs>
</svg>
