<svg width="223" height="324" viewBox="0 0 223 324" fill="none" xmlns="http://www.w3.org/2000/svg">
<g clip-path="url(#clip0_14_2461)">
<path d="M222.449 314.064C222.449 319.1 218.333 323.223 213.288 323.223H9.4811C4.4479 323.223 0.333313 319.1 0.333313 314.064V9.49347C0.333313 4.45701 4.4479 0.333313 9.4811 0.333313H213.288C218.333 0.333313 222.449 4.45701 222.449 9.49347V314.064Z" fill="white" stroke="#323232" stroke-width="0.666667"/>
<path d="M25.1873 33.6844V26.3719H11.9373V22.9344L25.8748 3.14272H28.9373V22.9344H33.0623V26.3719H28.9373V33.6844H25.1873ZM25.1873 22.9344V9.16355L15.6248 22.9344H25.1873Z" fill="#323232"/>
<path d="M38.6416 65.7946C38.1548 58.3333 23.0588 44.29 22.572 40.7773C22.0853 44.2881 6.98925 58.3315 6.50248 65.7946C6.16254 71.0691 9.9119 73.2558 13.3213 73.2558C17.0127 73.2161 20.0615 68.105 21.1117 67.1114C21.5985 68.4282 17.8873 79.4002 16.7287 79.4002H28.4173C27.2587 79.4002 23.5476 68.4282 24.0344 67.1114C24.9539 68.0241 27.6492 73.1028 31.8268 73.2558C35.2342 73.254 38.9815 71.0691 38.6416 65.7946Z" fill="#323232"/>
<path d="M101.028 86.5074C100.174 73.4075 73.6691 48.7512 72.8145 42.5839C71.9599 48.748 45.4554 73.4043 44.6008 86.5074C44.0039 95.7681 50.5868 99.6073 56.5728 99.6073C63.0538 99.5376 68.4066 90.564 70.2506 88.8194C71.1052 91.1313 64.5895 110.395 62.5553 110.395H83.0773C81.0431 110.395 74.5273 91.1313 75.382 88.8194C76.9964 90.4219 81.7286 99.3387 89.0633 99.6073C95.0457 99.6041 101.625 95.7681 101.028 86.5074Z" fill="#323232"/>
<path d="M198.179 290.499V297.811H211.429V301.249L197.491 321.04H194.429V301.249H190.304V297.811H194.429V290.499H198.179ZM198.179 301.249V315.019L207.741 301.249H198.179Z" fill="#323232"/>
<path d="M184.231 258.352C184.717 265.813 199.813 279.857 200.3 283.369C200.787 279.858 215.883 265.815 216.37 258.352C216.71 253.078 212.96 250.891 209.551 250.891C205.859 250.93 202.811 256.042 201.76 257.035C201.274 255.718 204.985 244.746 206.143 244.746H194.455C195.613 244.746 199.325 255.718 198.838 257.035C197.918 256.123 195.223 251.044 191.045 250.891C187.638 250.893 183.891 253.078 184.231 258.352Z" fill="#323232"/>
<path d="M44.6611 237.676C45.5157 250.775 72.0202 275.432 72.8748 281.599C73.7295 275.435 100.234 250.779 101.089 237.676C101.685 228.415 95.1025 224.576 89.1165 224.576C82.6355 224.645 77.2827 233.619 75.4387 235.364C74.5841 233.052 81.0999 213.788 83.134 213.788H62.6121C64.6463 213.788 71.162 233.052 70.3074 235.364C68.6929 233.761 63.9607 224.844 56.6261 224.576C50.6436 224.579 44.0643 228.415 44.6611 237.676Z" fill="#323232"/>
<path d="M178.464 86.4919C177.61 73.392 151.105 48.7357 150.251 42.5684C149.396 48.7325 122.892 73.3888 122.037 86.4919C121.44 95.7526 128.023 99.5918 134.009 99.5918C140.49 99.5221 145.843 90.5485 147.687 88.8039C148.541 91.1158 142.026 110.38 139.991 110.38H160.513C158.479 110.38 151.963 91.1158 152.818 88.8039C154.433 90.4064 159.165 99.3232 166.499 99.5918C172.482 99.5886 179.061 95.7526 178.464 86.4919Z" fill="#323232"/>
<path d="M122.097 237.66C122.952 250.76 149.456 275.416 150.311 281.584C151.166 275.42 177.67 250.763 178.525 237.66C179.122 228.399 172.539 224.56 166.553 224.56C160.072 224.63 154.719 233.604 152.875 235.348C152.02 233.036 158.536 213.772 160.57 213.772H140.048C142.082 213.772 148.598 233.036 147.744 235.348C146.129 233.746 141.397 224.829 134.062 224.56C128.08 224.563 121.5 228.399 122.097 237.66Z" fill="#323232"/>
</g>
<defs>
<clipPath id="clip0_14_2461">
<rect width="222.783" height="323.556" fill="white"/>
</clipPath>
</defs>
</svg>
