<svg width="223" height="324" viewBox="0 0 223 324" fill="none" xmlns="http://www.w3.org/2000/svg">
<g clip-path="url(#clip0_14_2436)">
<path d="M222.449 314.064C222.449 319.1 218.333 323.223 213.288 323.223H9.4811C4.4479 323.223 0.333313 319.1 0.333313 314.064V9.49353C0.333313 4.45707 4.4479 0.333374 9.4811 0.333374H213.288C218.333 0.333374 222.449 4.45707 222.449 9.49353V314.064Z" fill="white" stroke="black" stroke-width="0.666667"/>
<path d="M25.4922 33.6843V26.3718H12.2422V22.9343L26.1797 3.14266H29.2422V22.9343H33.3672V26.3718H29.2422V33.6843H25.4922ZM25.4922 22.9343V9.16349L15.9297 22.9343H25.4922Z" fill="#C80000"/>
<path d="M31.1097 43.0432C23.87 43.0432 22.9033 50.3078 22.9033 50.3078C22.9033 50.3078 21.9367 43.0432 14.697 43.0432C9.62944 43.0432 5.04407 46.3005 5.04407 52.4452C5.04407 60.5643 19.7314 68.729 22.9033 80.651C25.9216 68.739 40.7626 60.5643 40.7626 52.4452C40.7626 46.3005 36.1773 43.0432 31.1097 43.0432Z" fill="#C80000"/>
<path d="M197.965 288.354V295.666H211.215V299.104L197.278 318.895H194.215V299.104H190.09V295.666H194.215V288.354H197.965ZM197.965 299.104V312.874L207.528 299.104H197.965Z" fill="#C80000"/>
<path d="M192.002 278.995C199.241 278.995 200.208 271.73 200.208 271.73C200.208 271.73 201.175 278.995 208.414 278.995C213.482 278.995 218.067 275.737 218.067 269.593C218.067 261.474 203.38 253.309 200.208 241.387C197.19 253.299 182.349 261.474 182.349 269.593C182.349 275.737 186.934 278.995 192.002 278.995Z" fill="#C80000"/>
<path d="M88.4372 55.269C76.4208 55.269 74.8163 67.3268 74.8163 67.3268C74.8163 67.3268 73.2119 55.269 61.1955 55.269C52.7844 55.269 45.1736 60.6754 45.1736 70.8744C45.1736 84.3504 69.5516 97.9021 74.8163 117.69C79.826 97.9187 104.459 84.3504 104.459 70.8744C104.459 60.6754 96.8483 55.269 88.4372 55.269Z" fill="#C80000"/>
<path d="M61.1955 267.56C73.2119 267.56 74.8164 255.502 74.8164 255.502C74.8164 255.502 76.4208 267.56 88.4372 267.56C96.8483 267.56 104.459 262.154 104.459 251.955C104.459 238.479 80.0811 224.927 74.8164 205.139C69.8067 224.91 45.1736 238.479 45.1736 251.955C45.1736 262.154 52.7844 267.56 61.1955 267.56Z" fill="#C80000"/>
<path d="M161.227 55.6324C149.21 55.6324 147.606 67.6902 147.606 67.6902C147.606 67.6902 146.002 55.6324 133.985 55.6324C125.574 55.6324 117.963 61.0388 117.963 71.2378C117.963 84.7138 142.341 98.2655 147.606 118.054C152.616 98.2821 177.249 84.7138 177.249 71.2378C177.249 61.0388 169.638 55.6324 161.227 55.6324Z" fill="#C80000"/>
<path d="M133.985 267.924C146.002 267.924 147.606 255.866 147.606 255.866C147.606 255.866 149.211 267.924 161.227 267.924C169.638 267.924 177.249 262.517 177.249 252.318C177.249 238.842 152.871 225.29 147.606 205.502C142.596 225.274 117.963 238.842 117.963 252.318C117.963 262.517 125.574 267.924 133.985 267.924Z" fill="#C80000"/>
</g>
<defs>
<clipPath id="clip0_14_2436">
<rect width="222.783" height="323.556" fill="white"/>
</clipPath>
</defs>
</svg>
