<svg width="223" height="324" viewBox="0 0 223 324" fill="none" xmlns="http://www.w3.org/2000/svg">
<g clip-path="url(#clip0_14_2411)">
<path d="M222.449 314.064C222.449 319.1 218.333 323.223 213.288 323.223H9.4811C4.4479 323.223 0.333313 319.1 0.333313 314.064V9.49353C0.333313 4.45707 4.4479 0.333374 9.4811 0.333374H213.288C218.333 0.333374 222.449 4.45707 222.449 9.49353V314.064Z" fill="white" stroke="black" stroke-width="0.666667"/>
<path d="M24.2525 31.551V24.2385H11.0025V20.801L24.94 1.00936H28.0025V20.801H32.1275V24.2385H28.0025V31.551H24.2525ZM24.2525 20.801V7.03019L14.69 20.801H24.2525Z" fill="#DEA701"/>
<path d="M198.859 292.62V299.933H212.109V303.37L198.171 323.162H195.109V303.37H190.984V299.933H195.109V292.62H198.859ZM198.859 303.37V317.141L208.421 303.37H198.859Z" fill="#DEA701"/>
<path d="M29.0109 49.6763C24.8421 44.0365 22.6242 38.3048 22.6242 38.3048C22.6242 38.3048 20.4062 44.0365 16.2374 49.6763C12.0666 55.3142 6.87048 58.9815 6.87048 58.9815C6.87048 58.9815 12.0666 62.6468 16.2374 68.2886C20.4062 73.9265 22.6242 79.6582 22.6242 79.6582C22.6242 79.6582 24.8421 73.9265 29.0109 68.2886C33.1817 62.6468 38.3778 58.9815 38.3778 58.9815C38.3778 58.9815 33.1817 55.3142 29.0109 49.6763Z" fill="#DEA701"/>
<path d="M207.215 255.366C203.046 249.726 200.828 243.995 200.828 243.995C200.828 243.995 198.61 249.726 194.441 255.366C190.27 261.004 185.074 264.671 185.074 264.671C185.074 264.671 190.27 268.337 194.441 273.978C198.61 279.616 200.828 285.348 200.828 285.348C200.828 285.348 203.046 279.616 207.215 273.978C211.385 268.337 216.582 264.671 216.582 264.671C216.582 264.671 211.385 261.004 207.215 255.366Z" fill="#DEA701"/>
<path d="M160.8 229.055C153.494 219.171 149.607 209.126 149.607 209.126C149.607 209.126 145.72 219.171 138.414 229.055C131.105 238.936 121.999 245.363 121.999 245.363C121.999 245.363 131.105 251.786 138.414 261.673C145.72 271.554 149.607 281.599 149.607 281.599C149.607 281.599 153.494 271.554 160.8 261.673C168.11 251.786 177.216 245.363 177.216 245.363C177.216 245.363 168.11 238.936 160.8 229.055Z" fill="#DEA701"/>
<path d="M160.8 57.852C153.494 47.9682 149.607 37.9233 149.607 37.9233C149.607 37.9233 145.72 47.9682 138.414 57.852C131.105 67.7324 121.999 74.1594 121.999 74.1594C121.999 74.1594 131.105 80.583 138.414 90.4702C145.72 100.351 149.607 110.395 149.607 110.395C149.607 110.395 153.494 100.351 160.8 90.4702C168.11 80.583 177.216 74.1594 177.216 74.1594C177.216 74.1594 168.11 67.7324 160.8 57.852Z" fill="#DEA701"/>
<path d="M83.3646 229.055C76.0587 219.171 72.1717 209.126 72.1717 209.126C72.1717 209.126 68.2847 219.171 60.9788 229.055C53.6694 238.936 44.5632 245.363 44.5632 245.363C44.5632 245.363 53.6694 251.786 60.9788 261.673C68.2847 271.554 72.1717 281.599 72.1717 281.599C72.1717 281.599 76.0587 271.554 83.3646 261.673C90.6739 251.786 99.7801 245.363 99.7801 245.363C99.7801 245.363 90.6739 238.936 83.3646 229.055Z" fill="#DEA701"/>
<path d="M83.3646 57.852C76.0587 47.9682 72.1717 37.9233 72.1717 37.9233C72.1717 37.9233 68.2847 47.9682 60.9788 57.852C53.6694 67.7324 44.5632 74.1594 44.5632 74.1594C44.5632 74.1594 53.6694 80.583 60.9788 90.4702C68.2847 100.351 72.1717 110.395 72.1717 110.395C72.1717 110.395 76.0587 100.351 83.3646 90.4702C90.6739 80.583 99.7801 74.1594 99.7801 74.1594C99.7801 74.1594 90.6739 67.7324 83.3646 57.852Z" fill="#DEA701"/>
</g>
<defs>
<clipPath id="clip0_14_2411">
<rect width="222.783" height="323.556" fill="white"/>
</clipPath>
</defs>
</svg>
