<svg width="223" height="324" viewBox="0 0 223 324" fill="none" xmlns="http://www.w3.org/2000/svg">
<g clip-path="url(#clip0_14_2513)">
<path d="M222.449 314.064C222.449 319.1 218.333 323.223 213.288 323.223H9.48116C4.44796 323.223 0.333374 319.1 0.333374 314.064V9.49353C0.333374 4.45707 4.44796 0.333374 9.48116 0.333374H213.288C218.333 0.333374 222.449 4.45707 222.449 9.49353V314.064Z" fill="white" stroke="black" stroke-width="0.666667"/>
<path d="M12.2318 23.551L16.1693 23.2177C16.4609 25.1344 17.1345 26.5788 18.1901 27.551C19.2595 28.5094 20.5443 28.9885 22.0443 28.9885C23.8498 28.9885 25.3776 28.308 26.6276 26.9469C27.8776 25.5857 28.5026 23.7802 28.5026 21.5302C28.5026 19.3913 27.8984 17.7038 26.6901 16.4677C25.4957 15.2316 23.9262 14.6135 21.9818 14.6135C20.7734 14.6135 19.6832 14.8913 18.7109 15.4469C17.7387 15.9885 16.9748 16.6969 16.4193 17.5719L12.8984 17.1135L15.8568 1.42602H31.0443V5.00936H18.8568L17.2109 13.2177C19.0443 11.9399 20.9679 11.301 22.9818 11.301C25.6484 11.301 27.8984 12.2246 29.7318 14.0719C31.5651 15.9191 32.4818 18.2941 32.4818 21.1969C32.4818 23.9607 31.6762 26.3496 30.0651 28.3635C28.1068 30.8357 25.4332 32.0719 22.0443 32.0719C19.2665 32.0719 16.9957 31.2941 15.2318 29.7385C13.4818 28.183 12.4818 26.1205 12.2318 23.551Z" fill="#DEA701"/>
<path d="M210.88 300.62L206.942 300.954C206.651 299.037 205.977 297.592 204.921 296.62C203.852 295.662 202.567 295.183 201.067 295.183C199.262 295.183 197.734 295.863 196.484 297.224C195.234 298.586 194.609 300.391 194.609 302.641C194.609 304.78 195.213 306.467 196.421 307.704C197.616 308.94 199.185 309.558 201.13 309.558C202.338 309.558 203.428 309.28 204.401 308.724C205.373 308.183 206.137 307.474 206.692 306.599L210.213 307.058L207.255 322.745H192.067V319.162H204.255L205.901 310.954C204.067 312.231 202.144 312.87 200.13 312.87C197.463 312.87 195.213 311.947 193.38 310.099C191.546 308.252 190.63 305.877 190.63 302.974C190.63 300.211 191.435 297.822 193.046 295.808C195.005 293.336 197.678 292.099 201.067 292.099C203.845 292.099 206.116 292.877 207.88 294.433C209.63 295.988 210.63 298.051 210.88 300.62Z" fill="#DEA701"/>
<path d="M29.0109 49.6763C24.8421 44.0365 22.6242 38.3048 22.6242 38.3048C22.6242 38.3048 20.4062 44.0365 16.2374 49.6763C12.0666 55.3142 6.87048 58.9815 6.87048 58.9815C6.87048 58.9815 12.0666 62.6468 16.2374 68.2886C20.4062 73.9265 22.6242 79.6582 22.6242 79.6582C22.6242 79.6582 24.8421 73.9265 29.0109 68.2886C33.1817 62.6468 38.3778 58.9815 38.3778 58.9815C38.3778 58.9815 33.1817 55.3142 29.0109 49.6763Z" fill="#DEA701"/>
<path d="M207.215 255.366C203.046 249.726 200.828 243.995 200.828 243.995C200.828 243.995 198.61 249.726 194.441 255.366C190.27 261.004 185.074 264.671 185.074 264.671C185.074 264.671 190.27 268.337 194.441 273.978C198.61 279.616 200.828 285.348 200.828 285.348C200.828 285.348 203.046 279.616 207.215 273.978C211.385 268.337 216.582 264.671 216.582 264.671C216.582 264.671 211.385 261.004 207.215 255.366Z" fill="#DEA701"/>
<path d="M160.8 229.055C153.494 219.171 149.607 209.126 149.607 209.126C149.607 209.126 145.72 219.171 138.414 229.055C131.105 238.936 121.999 245.363 121.999 245.363C121.999 245.363 131.105 251.786 138.414 261.673C145.72 271.554 149.607 281.599 149.607 281.599C149.607 281.599 153.494 271.554 160.8 261.673C168.11 251.786 177.216 245.363 177.216 245.363C177.216 245.363 168.11 238.936 160.8 229.055Z" fill="#DEA701"/>
<path d="M160.8 57.852C153.494 47.9682 149.607 37.9233 149.607 37.9233C149.607 37.9233 145.72 47.9682 138.414 57.852C131.105 67.7324 121.999 74.1594 121.999 74.1594C121.999 74.1594 131.105 80.583 138.414 90.4702C145.72 100.351 149.607 110.395 149.607 110.395C149.607 110.395 153.494 100.351 160.8 90.4702C168.11 80.583 177.216 74.1594 177.216 74.1594C177.216 74.1594 168.11 67.7324 160.8 57.852Z" fill="#DEA701"/>
<path d="M83.3646 229.055C76.0587 219.171 72.1717 209.126 72.1717 209.126C72.1717 209.126 68.2847 219.171 60.9788 229.055C53.6694 238.936 44.5632 245.363 44.5632 245.363C44.5632 245.363 53.6694 251.786 60.9788 261.673C68.2847 271.554 72.1717 281.599 72.1717 281.599C72.1717 281.599 76.0587 271.554 83.3646 261.673C90.6739 251.786 99.7801 245.363 99.7801 245.363C99.7801 245.363 90.6739 238.936 83.3646 229.055Z" fill="#DEA701"/>
<path d="M83.3646 57.852C76.0587 47.9682 72.1717 37.9233 72.1717 37.9233C72.1717 37.9233 68.2847 47.9682 60.9788 57.852C53.6694 67.7324 44.5632 74.1594 44.5632 74.1594C44.5632 74.1594 53.6694 80.583 60.9788 90.4702C68.2847 100.351 72.1717 110.395 72.1717 110.395C72.1717 110.395 76.0587 100.351 83.3646 90.4702C90.6739 80.583 99.7801 74.1594 99.7801 74.1594C99.7801 74.1594 90.6739 67.7324 83.3646 57.852Z" fill="#DEA701"/>
<path d="M120.904 142.991C113.598 133.108 109.711 123.063 109.711 123.063C109.711 123.063 105.824 133.108 98.5186 142.991C91.2092 152.872 82.103 159.299 82.103 159.299C82.103 159.299 91.2092 165.722 98.5186 175.61C105.824 185.49 109.711 195.535 109.711 195.535C109.711 195.535 113.598 185.49 120.904 175.61C128.214 165.722 137.32 159.299 137.32 159.299C137.32 159.299 128.214 152.872 120.904 142.991Z" fill="#DEA701"/>
</g>
<defs>
<clipPath id="clip0_14_2513">
<rect width="222.783" height="323.556" fill="white"/>
</clipPath>
</defs>
</svg>
