<svg width="223" height="324" viewBox="0 0 223 324" fill="none" xmlns="http://www.w3.org/2000/svg">
<g clip-path="url(#clip0_14_2567)">
<path d="M222.449 314.064C222.449 319.1 218.333 323.223 213.288 323.223H9.48116C4.44796 323.223 0.333374 319.1 0.333374 314.064V9.49347C0.333374 4.45701 4.44796 0.333313 9.48116 0.333313H213.288C218.333 0.333313 222.449 4.45701 222.449 9.49347V314.064Z" fill="white" stroke="#323232" stroke-width="0.666667"/>
<path d="M13.1665 25.6844L17.104 25.3511C17.3956 27.2677 18.0692 28.7122 19.1248 29.6844C20.1942 30.6427 21.479 31.1219 22.979 31.1219C24.7845 31.1219 26.3123 30.4413 27.5623 29.0802C28.8123 27.7191 29.4373 25.9136 29.4373 23.6636C29.4373 21.5247 28.8331 19.8372 27.6248 18.6011C26.4304 17.3649 24.8609 16.7469 22.9165 16.7469C21.7081 16.7469 20.6179 17.0247 19.6456 17.5802C18.6734 18.1219 17.9095 18.8302 17.354 19.7052L13.8331 19.2469L16.7915 3.55939H31.979V7.14272H19.7915L18.1456 15.3511C19.979 14.0733 21.9026 13.4344 23.9165 13.4344C26.5831 13.4344 28.8331 14.358 30.6665 16.2052C32.4998 18.0524 33.4165 20.4274 33.4165 23.3302C33.4165 26.0941 32.6109 28.483 30.9998 30.4969C29.0415 32.9691 26.3679 34.2052 22.979 34.2052C20.2012 34.2052 17.9304 33.4274 16.1665 31.8719C14.4165 30.3163 13.4165 28.2538 13.1665 25.6844Z" fill="#323232"/>
<path d="M38.6417 65.7946C38.1549 58.3333 23.0589 44.29 22.5722 40.7773C22.0854 44.2881 6.98938 58.3315 6.5026 65.7946C6.16267 71.0691 9.91203 73.2558 13.3214 73.2558C17.0128 73.2161 20.0616 68.105 21.1118 67.1114C21.5986 68.4282 17.8875 79.4002 16.7289 79.4002H28.4175C27.2589 79.4002 23.5477 68.4282 24.0345 67.1114C24.954 68.0241 27.6493 73.1028 31.8269 73.2558C35.2343 73.254 38.9816 71.0691 38.6417 65.7946Z" fill="#323232"/>
<path d="M103.162 75.8408C102.307 62.7409 75.8024 38.0846 74.9478 31.9173C74.0932 38.0814 47.5887 62.7377 46.7341 75.8408C46.1372 85.1014 52.7201 88.9407 58.7061 88.9407C65.1871 88.871 70.5399 79.8974 72.3839 78.1527C73.2385 80.4647 66.7228 99.7286 64.6886 99.7286H85.2106C83.1764 99.7286 76.6606 80.4647 77.5153 78.1527C79.1297 79.7553 83.8619 88.6721 91.1966 88.9407C97.1791 88.9374 103.758 85.1014 103.162 75.8408Z" fill="#323232"/>
<path d="M210.2 298.499L206.262 298.832C205.97 296.915 205.297 295.471 204.241 294.499C203.172 293.54 201.887 293.061 200.387 293.061C198.581 293.061 197.054 293.742 195.804 295.103C194.554 296.464 193.929 298.269 193.929 300.519C193.929 302.658 194.533 304.346 195.741 305.582C196.936 306.818 198.505 307.436 200.45 307.436C201.658 307.436 202.748 307.158 203.72 306.603C204.693 306.061 205.456 305.353 206.012 304.478L209.533 304.936L206.575 320.624H191.387V317.04H203.575L205.22 308.832C203.387 310.11 201.463 310.749 199.45 310.749C196.783 310.749 194.533 309.825 192.7 307.978C190.866 306.131 189.95 303.756 189.95 300.853C189.95 298.089 190.755 295.7 192.366 293.686C194.325 291.214 196.998 289.978 200.387 289.978C203.165 289.978 205.436 290.756 207.2 292.311C208.95 293.867 209.95 295.929 210.2 298.499Z" fill="#323232"/>
<path d="M184.231 258.352C184.717 265.813 199.813 279.857 200.3 283.369C200.787 279.858 215.883 265.815 216.37 258.352C216.71 253.078 212.96 250.891 209.551 250.891C205.859 250.93 202.811 256.042 201.76 257.035C201.274 255.718 204.985 244.746 206.143 244.746H194.455C195.613 244.746 199.325 255.718 198.838 257.035C197.918 256.123 195.223 251.044 191.045 250.891C187.638 250.893 183.891 253.078 184.231 258.352Z" fill="#323232"/>
<path d="M46.7944 248.342C47.649 261.442 74.1535 286.099 75.0081 292.266C75.8628 286.102 102.367 261.445 103.222 248.342C103.819 239.082 97.2358 235.242 91.2498 235.242C84.7688 235.312 79.416 244.286 77.572 246.03C76.7174 243.718 83.2332 224.454 85.2673 224.454H64.7454C66.7796 224.454 73.2953 243.718 72.4407 246.03C70.8262 244.428 66.094 235.511 58.7594 235.242C52.7769 235.246 46.1976 239.082 46.7944 248.342Z" fill="#323232"/>
<path d="M139.54 168.776C138.685 155.676 112.181 131.02 111.326 124.852C110.472 131.016 83.9671 155.673 83.1125 168.776C82.5157 178.037 89.0985 181.876 95.0845 181.876C101.566 181.806 106.918 172.832 108.762 171.088C109.617 173.4 103.101 192.664 101.067 192.664H121.589C119.555 192.664 113.039 173.4 113.894 171.088C115.508 172.69 120.24 181.607 127.575 181.876C133.557 181.873 140.137 178.037 139.54 168.776Z" fill="#323232"/>
<path d="M174.788 76.0136C173.934 62.9137 147.429 38.2574 146.575 32.0901C145.72 38.2542 119.216 62.9105 118.361 76.0136C117.764 85.2742 124.347 89.1135 130.333 89.1135C136.814 89.0438 142.167 80.0701 144.011 78.3255C144.865 80.6375 138.35 99.9014 136.315 99.9014H156.837C154.803 99.9014 148.287 80.6375 149.142 78.3255C150.757 79.928 155.489 88.8449 162.823 89.1135C168.806 89.1102 175.385 85.2742 174.788 76.0136Z" fill="#323232"/>
<path d="M118.421 248.515C119.276 261.615 145.78 286.271 146.635 292.439C147.49 286.275 173.994 261.618 174.849 248.515C175.446 239.255 168.863 235.415 162.877 235.415C156.396 235.485 151.043 244.459 149.199 246.203C148.344 243.891 154.86 224.627 156.894 224.627H136.372C138.406 224.627 144.922 243.891 144.068 246.203C142.453 244.601 137.721 235.684 130.386 235.415C124.404 235.419 117.824 239.255 118.421 248.515Z" fill="#323232"/>
</g>
<defs>
<clipPath id="clip0_14_2567">
<rect width="222.783" height="323.556" fill="white"/>
</clipPath>
</defs>
</svg>
