<svg width="223" height="324" viewBox="0 0 223 324" fill="none" xmlns="http://www.w3.org/2000/svg">
<g clip-path="url(#clip0_14_2540)">
<path d="M222.449 314.064C222.449 319.1 218.333 323.223 213.288 323.223H9.48116C4.44796 323.223 0.333374 319.1 0.333374 314.064V9.49353C0.333374 4.45707 4.44796 0.333374 9.48116 0.333374H213.288C218.333 0.333374 222.449 4.45707 222.449 9.49353V314.064Z" fill="white" stroke="black" stroke-width="0.666667"/>
<path d="M13.4714 25.6843L17.4089 25.351C17.7006 27.2677 18.3742 28.7121 19.4297 29.6843C20.4992 30.6427 21.7839 31.1218 23.2839 31.1218C25.0895 31.1218 26.6172 30.4413 27.8672 29.0802C29.1172 27.719 29.7422 25.9135 29.7422 23.6635C29.7422 21.5246 29.1381 19.8371 27.9297 18.601C26.7353 17.3649 25.1658 16.7468 23.2214 16.7468C22.0131 16.7468 20.9228 17.0246 19.9506 17.5802C18.9783 18.1218 18.2145 18.8302 17.6589 19.7052L14.1381 19.2468L17.0964 3.55933H32.2839V7.14266H20.0964L18.4506 15.351C20.2839 14.0732 22.2075 13.4343 24.2214 13.4343C26.8881 13.4343 29.1381 14.3579 30.9714 16.2052C32.8047 18.0524 33.7214 20.4274 33.7214 23.3302C33.7214 26.094 32.9158 28.4829 31.3047 30.4968C29.3464 32.969 26.6728 34.2052 23.2839 34.2052C20.5061 34.2052 18.2353 33.4274 16.4714 31.8718C14.7214 30.3163 13.7214 28.2538 13.4714 25.6843Z" fill="#C80000"/>
<path d="M31.1097 43.0432C23.87 43.0432 22.9033 50.3078 22.9033 50.3078C22.9033 50.3078 21.9367 43.0432 14.697 43.0432C9.62944 43.0432 5.04407 46.3005 5.04407 52.4452C5.04407 60.5643 19.7314 68.729 22.9033 80.651C25.9216 68.739 40.7626 60.5643 40.7626 52.4452C40.7626 46.3005 36.1773 43.0432 31.1097 43.0432Z" fill="#C80000"/>
<path d="M209.986 296.354L206.049 296.687C205.757 294.77 205.083 293.326 204.028 292.354C202.958 291.395 201.674 290.916 200.174 290.916C198.368 290.916 196.84 291.597 195.59 292.958C194.34 294.319 193.715 296.124 193.715 298.374C193.715 300.513 194.319 302.201 195.528 303.437C196.722 304.673 198.292 305.291 200.236 305.291C201.444 305.291 202.535 305.013 203.507 304.458C204.479 303.916 205.243 303.208 205.799 302.333L209.319 302.791L206.361 318.479H191.174V314.895H203.361L205.007 306.687C203.174 307.965 201.25 308.604 199.236 308.604C196.569 308.604 194.319 307.68 192.486 305.833C190.653 303.985 189.736 301.61 189.736 298.708C189.736 295.944 190.542 293.555 192.153 291.541C194.111 289.069 196.785 287.833 200.174 287.833C202.951 287.833 205.222 288.61 206.986 290.166C208.736 291.722 209.736 293.784 209.986 296.354Z" fill="#C80000"/>
<path d="M192.002 278.995C199.241 278.995 200.208 271.73 200.208 271.73C200.208 271.73 201.175 278.995 208.414 278.995C213.482 278.995 218.067 275.737 218.067 269.593C218.067 261.474 203.38 253.309 200.208 241.387C197.19 253.299 182.349 261.474 182.349 269.593C182.349 275.737 186.934 278.995 192.002 278.995Z" fill="#C80000"/>
<path d="M88.4372 55.269C76.4208 55.269 74.8163 67.3268 74.8163 67.3268C74.8163 67.3268 73.2119 55.269 61.1955 55.269C52.7844 55.269 45.1736 60.6754 45.1736 70.8744C45.1736 84.3504 69.5516 97.9021 74.8163 117.69C79.826 97.9187 104.459 84.3504 104.459 70.8744C104.459 60.6754 96.8483 55.269 88.4372 55.269Z" fill="#C80000"/>
<path d="M61.1955 267.56C73.2119 267.56 74.8164 255.502 74.8164 255.502C74.8164 255.502 76.4208 267.56 88.4372 267.56C96.8483 267.56 104.459 262.154 104.459 251.955C104.459 238.479 80.0811 224.927 74.8164 205.139C69.8067 224.91 45.1736 238.479 45.1736 251.955C45.1736 262.154 52.7844 267.56 61.1955 267.56Z" fill="#C80000"/>
<path d="M161.227 55.6324C149.211 55.6324 147.606 67.6902 147.606 67.6902C147.606 67.6902 146.002 55.6324 133.985 55.6324C125.574 55.6324 117.963 61.0388 117.963 71.2378C117.963 84.7138 142.341 98.2655 147.606 118.054C152.616 98.2821 177.249 84.7138 177.249 71.2378C177.249 61.0388 169.638 55.6324 161.227 55.6324Z" fill="#C80000"/>
<path d="M133.985 267.924C146.002 267.924 147.606 255.866 147.606 255.866C147.606 255.866 149.21 267.924 161.227 267.924C169.638 267.924 177.249 262.517 177.249 252.318C177.249 238.842 152.871 225.29 147.606 205.502C142.596 225.274 117.963 238.842 117.963 252.318C117.963 262.517 125.574 267.924 133.985 267.924Z" fill="#C80000"/>
<path d="M124.572 135.526C112.556 135.526 110.951 147.584 110.951 147.584C110.951 147.584 109.347 135.526 97.3304 135.526C88.9192 135.526 81.3085 140.933 81.3085 151.131C81.3085 164.608 105.686 178.159 110.951 197.947C115.961 178.176 140.594 164.608 140.594 151.131C140.594 140.933 132.983 135.526 124.572 135.526Z" fill="#C80000"/>
</g>
<defs>
<clipPath id="clip0_14_2540">
<rect width="222.783" height="323.556" fill="white"/>
</clipPath>
</defs>
</svg>
