<svg width="223" height="324" viewBox="0 0 223 324" fill="none" xmlns="http://www.w3.org/2000/svg">
<g clip-path="url(#clip0_14_2803)">
<path d="M222.449 314.064C222.449 319.1 218.333 323.223 213.288 323.223H9.48116C4.44796 323.223 0.333374 319.1 0.333374 314.064V9.49347C0.333374 4.45701 4.44796 0.333313 9.48116 0.333313H213.288C218.333 0.333313 222.449 4.45701 222.449 9.49347V314.064Z" fill="white" stroke="#323232" stroke-width="0.666667"/>
<path d="M13.4165 7.14272V3.53855H33.1873V6.45522C31.2429 8.52466 29.3123 11.2747 27.3956 14.7052C25.4929 18.1358 24.0206 21.6636 22.979 25.2886C22.229 27.8441 21.7498 30.6427 21.5415 33.6844H17.6873C17.729 31.2816 18.2012 28.3788 19.104 24.9761C20.0067 21.5733 21.2984 18.2955 22.979 15.1427C24.6734 11.9761 26.472 9.30939 28.3748 7.14272H13.4165Z" fill="#323232"/>
<path d="M38.6417 65.7946C38.1549 58.3333 23.0589 44.29 22.5722 40.7773C22.0854 44.2881 6.98938 58.3315 6.5026 65.7946C6.16267 71.0691 9.91203 73.2558 13.3214 73.2558C17.0128 73.2161 20.0616 68.105 21.1118 67.1114C21.5986 68.4282 17.8875 79.4002 16.7289 79.4002H28.4175C27.2589 79.4002 23.5477 68.4282 24.0345 67.1114C24.954 68.0241 27.6493 73.1028 31.8269 73.2558C35.2343 73.254 38.9816 71.0691 38.6417 65.7946Z" fill="#323232"/>
<path d="M101.028 69.4408C100.174 56.3409 73.6691 31.6846 72.8145 25.5173C71.9599 31.6814 45.4554 56.3377 44.6008 69.4408C44.0039 78.7014 50.5868 82.5407 56.5728 82.5407C63.0538 82.471 68.4066 73.4973 70.2506 71.7527C71.1052 74.0646 64.5895 93.3286 62.5553 93.3286H83.0773C81.0431 93.3286 74.5273 74.0646 75.382 71.7527C76.9964 73.3552 81.7286 82.2721 89.0633 82.5407C95.0457 82.5374 101.625 78.7014 101.028 69.4408Z" fill="#323232"/>
<path d="M209.95 317.04V320.644H190.179V317.728C192.123 315.658 194.054 312.908 195.97 309.478C197.873 306.047 199.345 302.519 200.387 298.894C201.137 296.339 201.616 293.54 201.825 290.499H205.679C205.637 292.901 205.165 295.804 204.262 299.207C203.359 302.61 202.068 305.888 200.387 309.04C198.693 312.207 196.894 314.874 194.991 317.04H209.95Z" fill="#323232"/>
<path d="M184.231 258.352C184.717 265.813 199.813 279.857 200.3 283.369C200.787 279.858 215.883 265.815 216.37 258.352C216.71 253.078 212.96 250.891 209.551 250.891C205.859 250.93 202.811 256.042 201.76 257.035C201.274 255.718 204.985 244.746 206.143 244.746H194.455C195.613 244.746 199.325 255.718 198.838 257.035C197.918 256.123 195.223 251.044 191.045 250.891C187.638 250.893 183.891 253.078 184.231 258.352Z" fill="#323232"/>
<path d="M44.6611 254.742C45.5157 267.842 72.0202 292.499 72.8748 298.666C73.7295 292.502 100.234 267.845 101.089 254.742C101.685 245.482 95.1025 241.642 89.1165 241.642C82.6355 241.712 77.2827 250.686 75.4387 252.43C74.5841 250.118 81.0999 230.855 83.134 230.855H62.6121C64.6463 230.855 71.162 250.118 70.3074 252.43C68.6929 250.828 63.9607 241.911 56.6261 241.642C50.6436 241.646 44.0643 245.482 44.6611 254.742Z" fill="#323232"/>
<path d="M101.14 168.776C100.285 155.676 73.781 131.02 72.9263 124.852C72.0717 131.016 45.5672 155.673 44.7126 168.776C44.1158 178.037 50.6986 181.876 56.6846 181.876C63.1657 181.806 68.5185 172.832 70.3624 171.088C71.217 173.4 64.7013 192.664 62.6671 192.664H83.1891C81.1549 192.664 74.6391 173.4 75.4938 171.088C77.1082 172.69 81.8405 181.607 89.1751 181.876C95.1576 181.873 101.737 178.037 101.14 168.776Z" fill="#323232"/>
<path d="M178.211 69.1753C177.356 56.0755 150.852 31.4191 149.997 25.2518C149.142 31.4159 122.638 56.0722 121.783 69.1753C121.187 78.436 127.769 82.2752 133.755 82.2752C140.236 82.2055 145.589 73.2319 147.433 71.4873C148.288 73.7992 141.772 93.0632 139.738 93.0632H160.26C158.226 93.0632 151.71 73.7992 152.565 71.4873C154.179 73.0898 158.911 82.0067 166.246 82.2752C172.228 82.272 178.808 78.436 178.211 69.1753Z" fill="#323232"/>
<path d="M121.844 254.477C122.698 267.577 149.203 292.233 150.057 298.4C150.912 292.236 177.417 267.58 178.271 254.477C178.868 245.216 172.285 241.377 166.299 241.377C159.818 241.447 154.465 250.42 152.621 252.165C151.767 249.853 158.282 230.589 160.317 230.589H139.795C141.829 230.589 148.345 249.853 147.49 252.165C145.876 250.562 141.143 241.646 133.809 241.377C127.826 241.38 121.247 245.216 121.844 254.477Z" fill="#323232"/>
<path d="M178.323 168.51C177.468 155.411 150.963 130.754 150.109 124.587C149.254 130.751 122.75 155.407 121.895 168.51C121.298 177.771 127.881 181.61 133.867 181.61C140.348 181.541 145.701 172.567 147.545 170.822C148.4 173.134 141.884 192.398 139.85 192.398H160.372C158.337 192.398 151.822 173.134 152.676 170.822C154.291 172.425 159.023 181.342 166.358 181.61C172.34 181.607 178.919 177.771 178.323 168.51Z" fill="#323232"/>
<path d="M139.54 121.937C138.685 108.837 112.181 84.1806 111.326 78.0132C110.472 84.1773 83.9671 108.834 83.1125 121.937C82.5157 131.197 89.0985 135.037 95.0845 135.037C101.566 134.967 106.918 125.993 108.762 124.249C109.617 126.561 103.101 145.825 101.067 145.825H121.589C119.555 145.825 113.039 126.561 113.894 124.249C115.508 125.851 120.24 134.768 127.575 135.037C133.557 135.033 140.137 131.197 139.54 121.937Z" fill="#323232"/>
</g>
<defs>
<clipPath id="clip0_14_2803">
<rect width="222.783" height="323.556" fill="white"/>
</clipPath>
</defs>
</svg>
