<svg width="223" height="324" viewBox="0 0 223 324" fill="none" xmlns="http://www.w3.org/2000/svg">
<g clip-path="url(#clip0_14_2741)">
<path d="M222.449 314.064C222.449 319.1 218.333 323.223 213.288 323.223H9.48116C4.44796 323.223 0.333374 319.1 0.333374 314.064V9.49353C0.333374 4.45707 4.44796 0.333374 9.48116 0.333374H213.288C218.333 0.333374 222.449 4.45707 222.449 9.49353V314.064Z" fill="white" stroke="black" stroke-width="0.666667"/>
<path d="M12.4818 5.00936V1.40519H32.2526V4.32186C30.3082 6.3913 28.3776 9.1413 26.4609 12.5719C24.5582 16.0024 23.0859 19.5302 22.0443 23.1552C21.2943 25.7107 20.8151 28.5094 20.6068 31.551H16.7526C16.7943 29.1482 17.2665 26.2455 18.1693 22.8427C19.072 19.4399 20.3637 16.1621 22.0443 13.0094C23.7387 9.84269 25.5373 7.17602 27.4401 5.00936H12.4818Z" fill="#DEA701"/>
<path d="M210.63 319.162V322.766H190.859V319.849C192.803 317.78 194.734 315.03 196.651 311.599C198.553 308.169 200.026 304.641 201.067 301.016C201.817 298.461 202.296 295.662 202.505 292.62H206.359C206.317 295.023 205.845 297.926 204.942 301.329C204.039 304.731 202.748 308.009 201.067 311.162C199.373 314.329 197.574 316.995 195.671 319.162H210.63Z" fill="#DEA701"/>
<path d="M29.0109 49.6763C24.8421 44.0365 22.6242 38.3048 22.6242 38.3048C22.6242 38.3048 20.4062 44.0365 16.2374 49.6763C12.0666 55.3142 6.87048 58.9815 6.87048 58.9815C6.87048 58.9815 12.0666 62.6468 16.2374 68.2886C20.4062 73.9265 22.6242 79.6582 22.6242 79.6582C22.6242 79.6582 24.8421 73.9265 29.0109 68.2886C33.1817 62.6468 38.3778 58.9815 38.3778 58.9815C38.3778 58.9815 33.1817 55.3142 29.0109 49.6763Z" fill="#DEA701"/>
<path d="M207.215 255.366C203.046 249.726 200.828 243.995 200.828 243.995C200.828 243.995 198.61 249.726 194.441 255.366C190.27 261.004 185.074 264.671 185.074 264.671C185.074 264.671 190.27 268.337 194.441 273.978C198.61 279.616 200.828 285.348 200.828 285.348C200.828 285.348 203.046 279.616 207.215 273.978C211.385 268.337 216.582 264.671 216.582 264.671C216.582 264.671 211.385 261.004 207.215 255.366Z" fill="#DEA701"/>
<path d="M160.164 241.855C152.859 231.971 148.972 221.927 148.972 221.927C148.972 221.927 145.085 231.971 137.779 241.855C130.469 251.736 121.363 258.163 121.363 258.163C121.363 258.163 130.469 264.586 137.779 274.473C145.085 284.354 148.972 294.399 148.972 294.399C148.972 294.399 152.859 284.354 160.164 274.473C167.474 264.586 176.58 258.163 176.58 258.163C176.58 258.163 167.474 251.736 160.164 241.855Z" fill="#DEA701"/>
<path d="M160.164 49.3187C152.859 39.4349 148.972 29.39 148.972 29.39C148.972 29.39 145.085 39.4349 137.779 49.3187C130.469 59.1991 121.363 65.6261 121.363 65.6261C121.363 65.6261 130.469 72.0496 137.779 81.9369C145.085 91.8173 148.972 101.862 148.972 101.862C148.972 101.862 152.859 91.8173 160.164 81.9369C167.474 72.0496 176.58 65.6261 176.58 65.6261C176.58 65.6261 167.474 59.1991 160.164 49.3187Z" fill="#DEA701"/>
<path d="M160.164 144.386C152.859 134.503 148.972 124.458 148.972 124.458C148.972 124.458 145.085 134.503 137.779 144.386C130.469 154.267 121.363 160.694 121.363 160.694C121.363 160.694 130.469 167.117 137.779 177.005C145.085 186.885 148.972 196.93 148.972 196.93C148.972 196.93 152.859 186.885 160.164 177.005C167.474 167.117 176.58 160.694 176.58 160.694C176.58 160.694 167.474 154.267 160.164 144.386Z" fill="#DEA701"/>
<path d="M83.7441 242.013C76.4382 232.129 72.5512 222.084 72.5512 222.084C72.5512 222.084 68.6642 232.129 61.3583 242.013C54.049 251.893 44.9427 258.32 44.9427 258.32C44.9427 258.32 54.049 264.744 61.3583 274.631C68.6642 284.511 72.5512 294.556 72.5512 294.556C72.5512 294.556 76.4382 284.511 83.7441 274.631C91.0534 264.744 100.16 258.32 100.16 258.32C100.16 258.32 91.0534 251.893 83.7441 242.013Z" fill="#DEA701"/>
<path d="M83.7441 49.4762C76.4382 39.5924 72.5512 29.5475 72.5512 29.5475C72.5512 29.5475 68.6642 39.5924 61.3583 49.4762C54.049 59.3566 44.9427 65.7836 44.9427 65.7836C44.9427 65.7836 54.049 72.2071 61.3583 82.0944C68.6642 91.9747 72.5512 102.02 72.5512 102.02C72.5512 102.02 76.4382 91.9747 83.7441 82.0944C91.0534 72.2071 100.16 65.7836 100.16 65.7836C100.16 65.7836 91.0534 59.3566 83.7441 49.4762Z" fill="#DEA701"/>
<path d="M83.7441 144.544C76.4382 134.66 72.5512 124.615 72.5512 124.615C72.5512 124.615 68.6642 134.66 61.3583 144.544C54.049 154.424 44.9427 160.851 44.9427 160.851C44.9427 160.851 54.049 167.275 61.3583 177.162C68.6642 187.042 72.5512 197.087 72.5512 197.087C72.5512 197.087 76.4382 187.042 83.7441 177.162C91.0534 167.275 100.16 160.851 100.16 160.851C100.16 160.851 91.0534 154.424 83.7441 144.544Z" fill="#DEA701"/>
<path d="M122.144 97.743C114.838 87.8592 110.951 77.8143 110.951 77.8143C110.951 77.8143 107.064 87.8592 99.7583 97.743C92.449 107.623 83.3428 114.05 83.3428 114.05C83.3428 114.05 92.449 120.474 99.7583 130.361C107.064 140.242 110.951 150.286 110.951 150.286C110.951 150.286 114.838 140.242 122.144 130.361C129.453 120.474 138.56 114.05 138.56 114.05C138.56 114.05 129.453 107.623 122.144 97.743Z" fill="#DEA701"/>
</g>
<defs>
<clipPath id="clip0_14_2741">
<rect width="222.783" height="323.556" fill="white"/>
</clipPath>
</defs>
</svg>
