<svg width="223" height="324" viewBox="0 0 223 324" fill="none" xmlns="http://www.w3.org/2000/svg">
<g clip-path="url(#clip0_14_2933)">
<path d="M222.449 314.064C222.449 319.1 218.333 323.223 213.288 323.223H9.48104C4.44784 323.223 0.333252 319.1 0.333252 314.064V9.49347C0.333252 4.45701 4.44784 0.333313 9.48104 0.333313H213.288C218.333 0.333313 222.449 4.45701 222.449 9.49347V314.064Z" fill="white" stroke="#323232" stroke-width="0.666667"/>
<path d="M18.9372 17.1219C17.3816 16.5524 16.2288 15.7399 15.4788 14.6844C14.7288 13.6288 14.3538 12.3649 14.3538 10.8927C14.3538 8.6705 15.1525 6.80244 16.7497 5.28855C18.3469 3.77466 20.4719 3.01772 23.1247 3.01772C25.7913 3.01772 27.9372 3.7955 29.5622 5.35105C31.1872 6.89272 31.9997 8.77466 31.9997 10.9969C31.9997 12.4136 31.6247 13.6497 30.8747 14.7052C30.1386 15.7469 29.0136 16.5524 27.4997 17.1219C29.3747 17.733 30.7983 18.7191 31.7705 20.0802C32.7566 21.4413 33.2497 23.0663 33.2497 24.9552C33.2497 27.5663 32.3261 29.7608 30.4788 31.5386C28.6316 33.3163 26.2011 34.2052 23.1872 34.2052C20.1733 34.2052 17.7427 33.3163 15.8955 31.5386C14.0483 29.7469 13.1247 27.5177 13.1247 24.8511C13.1247 22.8649 13.6247 21.2052 14.6247 19.8719C15.6386 18.5247 17.0761 17.608 18.9372 17.1219ZM18.1872 10.7677C18.1872 12.2122 18.6525 13.3927 19.583 14.3094C20.5136 15.2261 21.7219 15.6844 23.208 15.6844C24.6525 15.6844 25.833 15.233 26.7497 14.3302C27.6802 13.4136 28.1455 12.2955 28.1455 10.9761C28.1455 9.60105 27.6663 8.44828 26.708 7.51772C25.7636 6.57328 24.583 6.10105 23.1663 6.10105C21.7358 6.10105 20.5483 6.55939 19.6038 7.47605C18.6594 8.39272 18.1872 9.48994 18.1872 10.7677ZM16.9788 24.8719C16.9788 25.9413 17.2288 26.9761 17.7288 27.9761C18.2427 28.9761 18.9997 29.7538 19.9997 30.3094C20.9997 30.8511 22.0761 31.1219 23.2288 31.1219C25.0205 31.1219 26.4997 30.5455 27.6663 29.3927C28.833 28.2399 29.4163 26.7747 29.4163 24.9969C29.4163 23.1913 28.8122 21.6983 27.6038 20.5177C26.4094 19.3372 24.9094 18.7469 23.1038 18.7469C21.34 18.7469 19.8747 19.3302 18.708 20.4969C17.5552 21.6636 16.9788 23.1219 16.9788 24.8719Z" fill="#323232"/>
<path d="M38.6416 65.7946C38.1548 58.3333 23.0588 44.29 22.572 40.7773C22.0853 44.2881 6.98925 58.3315 6.50248 65.7946C6.16254 71.0691 9.9119 73.2558 13.3213 73.2558C17.0127 73.2161 20.0615 68.105 21.1117 67.1114C21.5985 68.4282 17.8873 79.4002 16.7287 79.4002H28.4173C27.2587 79.4002 23.5476 68.4282 24.0344 67.1114C24.9539 68.0241 27.6492 73.1028 31.8268 73.2558C35.2342 73.254 38.9815 71.0691 38.6416 65.7946Z" fill="#323232"/>
<path d="M101.028 69.4408C100.174 56.3409 73.6691 31.6846 72.8145 25.5173C71.9599 31.6814 45.4554 56.3377 44.6008 69.4408C44.0039 78.7014 50.5868 82.5407 56.5728 82.5407C63.0538 82.471 68.4066 73.4973 70.2506 71.7527C71.1052 74.0646 64.5895 93.3286 62.5553 93.3286H83.0773C81.0431 93.3286 74.5273 74.0646 75.382 71.7527C76.9964 73.3552 81.7286 82.2721 89.0633 82.5407C95.0457 82.5374 101.625 78.7014 101.028 69.4408Z" fill="#323232"/>
<path d="M204.429 307.061C205.984 307.631 207.137 308.443 207.887 309.499C208.637 310.554 209.012 311.818 209.012 313.29C209.012 315.513 208.213 317.381 206.616 318.894C205.019 320.408 202.894 321.165 200.241 321.165C197.574 321.165 195.429 320.388 193.804 318.832C192.179 317.29 191.366 315.408 191.366 313.186C191.366 311.769 191.741 310.533 192.491 309.478C193.227 308.436 194.352 307.631 195.866 307.061C193.991 306.45 192.567 305.464 191.595 304.103C190.609 302.742 190.116 301.117 190.116 299.228C190.116 296.617 191.04 294.422 192.887 292.644C194.734 290.867 197.165 289.978 200.179 289.978C203.192 289.978 205.623 290.867 207.47 292.644C209.317 294.436 210.241 296.665 210.241 299.332C210.241 301.318 209.741 302.978 208.741 304.311C207.727 305.658 206.29 306.575 204.429 307.061ZM205.179 313.415C205.179 311.971 204.713 310.79 203.783 309.874C202.852 308.957 201.644 308.499 200.158 308.499C198.713 308.499 197.533 308.95 196.616 309.853C195.685 310.769 195.22 311.888 195.22 313.207C195.22 314.582 195.699 315.735 196.658 316.665C197.602 317.61 198.783 318.082 200.199 318.082C201.63 318.082 202.817 317.624 203.762 316.707C204.706 315.79 205.179 314.693 205.179 313.415ZM206.387 299.311C206.387 298.242 206.137 297.207 205.637 296.207C205.123 295.207 204.366 294.429 203.366 293.874C202.366 293.332 201.29 293.061 200.137 293.061C198.345 293.061 196.866 293.638 195.699 294.79C194.533 295.943 193.949 297.408 193.949 299.186C193.949 300.992 194.554 302.485 195.762 303.665C196.956 304.846 198.456 305.436 200.262 305.436C202.026 305.436 203.491 304.853 204.658 303.686C205.81 302.519 206.387 301.061 206.387 299.311Z" fill="#323232"/>
<path d="M184.23 258.352C184.717 265.813 199.813 279.857 200.3 283.369C200.787 279.858 215.883 265.815 216.37 258.352C216.71 253.078 212.96 250.891 209.551 250.891C205.859 250.93 202.811 256.042 201.76 257.035C201.274 255.718 204.985 244.746 206.143 244.746H194.455C195.613 244.746 199.324 255.718 198.838 257.035C197.918 256.123 195.223 251.044 191.045 250.891C187.638 250.893 183.891 253.078 184.23 258.352Z" fill="#323232"/>
<path d="M44.6612 254.742C45.5159 267.842 72.0203 292.499 72.8749 298.666C73.7296 292.502 100.234 267.845 101.089 254.742C101.686 245.482 95.1027 241.642 89.1166 241.642C82.6356 241.712 77.2828 250.686 75.4389 252.43C74.5842 250.118 81.1 230.855 83.1342 230.855H62.6122C64.6464 230.855 71.1621 250.118 70.3075 252.43C68.693 250.828 63.9608 241.911 56.6262 241.642C50.6437 241.646 44.0644 245.482 44.6612 254.742Z" fill="#323232"/>
<path d="M101.14 168.776C100.285 155.676 73.781 131.02 72.9263 124.852C72.0717 131.016 45.5672 155.673 44.7126 168.776C44.1158 178.037 50.6986 181.876 56.6846 181.876C63.1657 181.806 68.5185 172.832 70.3624 171.088C71.217 173.4 64.7013 192.664 62.6671 192.664H83.1891C81.1549 192.664 74.6391 173.4 75.4938 171.088C77.1082 172.69 81.8405 181.607 89.1751 181.876C95.1576 181.873 101.737 178.037 101.14 168.776Z" fill="#323232"/>
<path d="M178.211 69.1753C177.356 56.0755 150.852 31.4191 149.997 25.2518C149.142 31.4159 122.638 56.0722 121.783 69.1753C121.187 78.436 127.769 82.2752 133.755 82.2752C140.236 82.2055 145.589 73.2319 147.433 71.4873C148.288 73.7992 141.772 93.0632 139.738 93.0632H160.26C158.226 93.0632 151.71 73.7992 152.565 71.4873C154.179 73.0898 158.911 82.0067 166.246 82.2752C172.228 82.272 178.808 78.436 178.211 69.1753Z" fill="#323232"/>
<path d="M121.844 254.477C122.698 267.577 149.203 292.233 150.057 298.4C150.912 292.236 177.416 267.58 178.271 254.477C178.868 245.216 172.285 241.377 166.299 241.377C159.818 241.447 154.465 250.42 152.621 252.165C151.767 249.853 158.282 230.589 160.317 230.589H139.795C141.829 230.589 148.345 249.853 147.49 252.165C145.875 250.562 141.143 241.646 133.809 241.377C127.826 241.38 121.247 245.216 121.844 254.477Z" fill="#323232"/>
<path d="M178.323 168.51C177.468 155.411 150.964 130.754 150.109 124.587C149.254 130.751 122.75 155.407 121.895 168.51C121.298 177.771 127.881 181.61 133.867 181.61C140.348 181.541 145.701 172.567 147.545 170.822C148.4 173.134 141.884 192.398 139.85 192.398H160.372C158.337 192.398 151.822 173.134 152.676 170.822C154.291 172.425 159.023 181.342 166.358 181.61C172.34 181.607 178.92 177.771 178.323 168.51Z" fill="#323232"/>
<path d="M139.54 121.937C138.685 108.837 112.181 84.1806 111.326 78.0132C110.472 84.1773 83.9671 108.834 83.1125 121.937C82.5157 131.197 89.0985 135.037 95.0845 135.037C101.566 134.967 106.918 125.993 108.762 124.249C109.617 126.561 103.101 145.825 101.067 145.825H121.589C119.555 145.825 113.039 126.561 113.894 124.249C115.508 125.851 120.24 134.768 127.575 135.037C133.557 135.033 140.137 131.197 139.54 121.937Z" fill="#323232"/>
<path d="M82.6742 205.718C83.5288 218.818 110.033 243.474 110.888 249.642C111.743 243.478 138.247 218.821 139.102 205.718C139.698 196.458 133.116 192.618 127.13 192.618C120.649 192.688 115.296 201.662 113.452 203.406C112.597 201.094 119.113 181.83 121.147 181.83H100.625C102.659 181.83 109.175 201.094 108.32 203.406C106.706 201.804 101.974 192.887 94.6391 192.618C88.6566 192.622 82.0773 196.458 82.6742 205.718Z" fill="#323232"/>
</g>
<defs>
<clipPath id="clip0_14_2933">
<rect width="222.783" height="323.556" fill="white"/>
</clipPath>
</defs>
</svg>
