<svg width="223" height="324" viewBox="0 0 223 324" fill="none" xmlns="http://www.w3.org/2000/svg">
<g clip-path="url(#clip0_14_2966)">
<path d="M222.449 314.064C222.449 319.1 218.333 323.223 213.288 323.223H9.48104C4.44784 323.223 0.333252 319.1 0.333252 314.064V9.49341C0.333252 4.45695 4.44784 0.333252 9.48104 0.333252H213.288C218.333 0.333252 222.449 4.45695 222.449 9.49341V314.064Z" fill="white" stroke="#047ECF" stroke-width="0.666667"/>
<path d="M13.4141 26.002L17.0183 25.6686C17.3239 27.3631 17.9072 28.5922 18.7683 29.3561C19.6294 30.12 20.7336 30.502 22.0808 30.502C23.2336 30.502 24.2405 30.2381 25.1016 29.7103C25.9766 29.1825 26.6919 28.4811 27.2475 27.6061C27.803 26.7172 28.2683 25.5228 28.6433 24.0228C29.0183 22.5228 29.2058 20.995 29.2058 19.4395C29.2058 19.2728 29.1989 19.0228 29.185 18.6895C28.435 19.8839 27.4072 20.8561 26.1016 21.6061C24.81 22.3422 23.4072 22.7103 21.8933 22.7103C19.3655 22.7103 17.2266 21.7936 15.4766 19.9603C13.7266 18.127 12.8516 15.7103 12.8516 12.7103C12.8516 9.61306 13.7614 7.12001 15.5808 5.23112C17.4141 3.34223 19.7058 2.39779 22.4558 2.39779C24.4419 2.39779 26.2544 2.93251 27.8933 4.00195C29.5461 5.0714 30.7961 6.59917 31.6433 8.58529C32.5044 10.5575 32.935 13.4186 32.935 17.1686C32.935 21.0714 32.5114 24.1825 31.6641 26.502C30.8169 28.8075 29.553 30.5645 27.8725 31.7728C26.2058 32.9811 24.2475 33.5853 21.9975 33.5853C19.6086 33.5853 17.6572 32.9256 16.1433 31.6061C14.6294 30.2728 13.7197 28.4047 13.4141 26.002ZM28.7683 12.5228C28.7683 10.37 28.1919 8.66167 27.0391 7.39779C25.9003 6.1339 24.5253 5.50195 22.9141 5.50195C21.2475 5.50195 19.7961 6.18251 18.56 7.54362C17.3239 8.90473 16.7058 10.6686 16.7058 12.8353C16.7058 14.7797 17.2891 16.3631 18.4558 17.5853C19.6364 18.7936 21.0878 19.3978 22.81 19.3978C24.5461 19.3978 25.9697 18.7936 27.0808 17.5853C28.2058 16.3631 28.7683 14.6756 28.7683 12.5228Z" fill="#047ECF"/>
<path d="M27.5879 58.3197C27.5879 58.3197 32.2924 54.556 32.2924 49.3384C32.2924 46.2839 29.5806 41.2129 23.3112 41.2129C17.0417 41.2129 14.3299 46.2859 14.3299 49.3384C14.3299 54.556 19.0345 58.3197 19.0345 58.3197C13.8089 54.249 4.49292 57.0281 4.49292 65.1636C4.49292 69.2362 7.82078 73.7169 13.0463 73.7169C19.3158 73.7169 22.0276 66.873 22.0276 66.873C22.0276 66.873 22.8239 74.6737 18.1787 78.8494H28.4436C23.7985 74.6757 24.5948 66.873 24.5948 66.873C24.5948 66.873 27.3066 73.7169 33.576 73.7169C38.8035 73.7169 42.1294 69.2342 42.1294 65.1636C42.1294 57.0281 32.8134 54.249 27.5879 58.3197Z" fill="#047ECF"/>
<path d="M209.485 296.685L205.881 297.018C205.576 295.323 204.992 294.094 204.131 293.33C203.27 292.567 202.166 292.185 200.819 292.185C199.666 292.185 198.659 292.448 197.798 292.976C196.923 293.504 196.207 294.205 195.652 295.08C195.096 295.969 194.631 297.164 194.256 298.664C193.881 300.164 193.694 301.692 193.694 303.247C193.694 303.414 193.701 303.664 193.714 303.997C194.464 302.803 195.492 301.83 196.798 301.08C198.089 300.344 199.492 299.976 201.006 299.976C203.534 299.976 205.673 300.893 207.423 302.726C209.173 304.56 210.048 306.976 210.048 309.976C210.048 313.073 209.138 315.567 207.319 317.455C205.485 319.344 203.194 320.289 200.444 320.289C198.457 320.289 196.645 319.754 195.006 318.685C193.353 317.615 192.103 316.087 191.256 314.101C190.395 312.129 189.964 309.268 189.964 305.518C189.964 301.615 190.388 298.504 191.235 296.185C192.082 293.879 193.346 292.122 195.027 290.914C196.694 289.705 198.652 289.101 200.902 289.101C203.291 289.101 205.242 289.761 206.756 291.08C208.27 292.414 209.18 294.282 209.485 296.685ZM194.131 310.164C194.131 312.317 194.707 314.025 195.86 315.289C196.999 316.553 198.374 317.185 199.985 317.185C201.652 317.185 203.103 316.504 204.339 315.143C205.576 313.782 206.194 312.018 206.194 309.851C206.194 307.907 205.61 306.323 204.444 305.101C203.263 303.893 201.812 303.289 200.089 303.289C198.353 303.289 196.93 303.893 195.819 305.101C194.694 306.323 194.131 308.011 194.131 310.164Z" fill="#047ECF"/>
<path d="M195.312 264.987C195.312 264.987 190.607 268.751 190.607 273.968C190.607 277.023 193.319 282.094 199.588 282.094C205.858 282.094 208.57 277.021 208.57 273.968C208.57 268.751 203.865 264.987 203.865 264.987C209.09 269.058 218.406 266.279 218.406 258.143C218.406 254.07 215.079 249.59 209.853 249.59C203.584 249.59 200.872 256.434 200.872 256.434C200.872 256.434 200.076 248.633 204.721 244.457H194.456C199.101 248.631 198.305 256.434 198.305 256.434C198.305 256.434 195.593 249.59 189.323 249.59C184.096 249.59 180.77 254.072 180.77 258.143C180.77 266.279 190.086 269.058 195.312 264.987Z" fill="#047ECF"/>
<path d="M76.7637 33.4667C76.7637 33.4667 84.7202 27.1015 84.7202 18.2773C84.7202 13.1114 80.1339 4.53516 69.5308 4.53516C58.9277 4.53516 54.3414 13.1148 54.3414 18.2773C54.3414 27.1015 62.2979 33.4667 62.2979 33.4667C53.4604 26.5822 37.7048 31.2824 37.7048 45.0413C37.7048 51.9291 43.333 59.507 52.1706 59.507C62.7737 59.507 67.36 47.9324 67.36 47.9324C67.36 47.9324 68.7067 61.1251 60.8507 68.1871H78.2109C70.3549 61.1285 71.7017 47.9324 71.7017 47.9324C71.7017 47.9324 76.288 59.507 86.8911 59.507C95.732 59.507 101.357 51.9257 101.357 45.0413C101.357 31.2824 85.6013 26.5822 76.7637 33.4667Z" fill="#047ECF"/>
<path d="M76.1472 124.268C76.1472 124.268 84.1037 117.902 84.1037 109.078C84.1037 103.912 79.5174 95.3362 68.9144 95.3362C58.3113 95.3362 53.725 103.916 53.725 109.078C53.725 117.902 61.6815 124.268 61.6815 124.268C52.8439 117.383 37.0884 122.083 37.0884 135.842C37.0884 142.73 42.7166 150.308 51.5541 150.308C62.1572 150.308 66.7435 138.733 66.7435 138.733C66.7435 138.733 68.0902 151.926 60.2342 158.988H77.5945C69.7385 151.929 71.0852 138.733 71.0852 138.733C71.0852 138.733 75.6715 150.308 86.2746 150.308C95.1155 150.308 100.74 142.727 100.74 135.842C100.74 122.083 84.9848 117.383 76.1472 124.268Z" fill="#047ECF"/>
<path d="M162.077 33.235C162.077 33.235 170.034 26.8698 170.034 18.0456C170.034 12.8797 165.447 4.30347 154.844 4.30347C144.241 4.30347 139.655 12.8831 139.655 18.0456C139.655 26.8698 147.611 33.235 147.611 33.235C138.774 26.3505 123.018 31.0507 123.018 44.8096C123.018 51.6974 128.646 59.2753 137.484 59.2753C148.087 59.2753 152.673 47.7007 152.673 47.7007C152.673 47.7007 154.02 60.8934 146.164 67.9554H163.524C155.668 60.8968 157.015 47.7007 157.015 47.7007C157.015 47.7007 161.601 59.2753 172.205 59.2753C181.045 59.2753 186.67 51.694 186.67 44.8096C186.67 31.0507 170.915 26.3505 162.077 33.235Z" fill="#047ECF"/>
<path d="M162.077 124.036C162.077 124.036 170.034 117.671 170.034 108.847C170.034 103.681 165.447 95.1045 154.844 95.1045C144.241 95.1045 139.655 103.684 139.655 108.847C139.655 117.671 147.611 124.036 147.611 124.036C138.774 117.152 123.018 121.852 123.018 135.611C123.018 142.498 128.646 150.076 137.484 150.076C148.087 150.076 152.673 138.502 152.673 138.502C152.673 138.502 154.02 151.694 146.164 158.756H163.524C155.668 151.698 157.015 138.502 157.015 138.502C157.015 138.502 161.601 150.076 172.205 150.076C181.045 150.076 186.67 142.495 186.67 135.611C186.67 121.852 170.915 117.152 162.077 124.036Z" fill="#047ECF"/>
<path d="M119.435 79.0414C119.435 79.0414 127.392 72.6762 127.392 63.852C127.392 58.6861 122.806 50.1099 112.202 50.1099C101.599 50.1099 97.0131 58.6895 97.0131 63.852C97.0131 72.6762 104.97 79.0414 104.97 79.0414C96.132 72.1569 80.3765 76.8571 80.3765 90.616C80.3765 97.5038 86.0046 105.082 94.8422 105.082C105.445 105.082 110.032 93.5071 110.032 93.5071C110.032 93.5071 111.378 106.7 103.522 113.762H120.883C113.027 106.703 114.373 93.5071 114.373 93.5071C114.373 93.5071 118.96 105.082 129.563 105.082C138.404 105.082 144.028 97.5004 144.028 90.616C144.028 76.8571 128.273 72.1569 119.435 79.0414Z" fill="#047ECF"/>
<path d="M146.75 290.403C146.75 290.403 138.794 296.768 138.794 305.592C138.794 310.758 143.38 319.334 153.983 319.334C164.586 319.334 169.172 310.755 169.172 305.592C169.172 296.768 161.216 290.403 161.216 290.403C170.053 297.287 185.809 292.587 185.809 278.828C185.809 271.94 180.181 264.362 171.343 264.362C160.74 264.362 156.154 275.937 156.154 275.937C156.154 275.937 154.807 262.744 162.663 255.682H145.303C153.159 262.741 151.812 275.937 151.812 275.937C151.812 275.937 147.226 264.362 136.623 264.362C127.782 264.362 122.157 271.944 122.157 278.828C122.157 292.587 137.913 297.287 146.75 290.403Z" fill="#047ECF"/>
<path d="M147.611 199.602C147.611 199.602 139.655 205.967 139.655 214.791C139.655 219.957 144.241 228.533 154.844 228.533C165.447 228.533 170.033 219.954 170.033 214.791C170.033 205.967 162.077 199.602 162.077 199.602C170.914 206.486 186.67 201.786 186.67 188.027C186.67 181.139 181.042 173.561 172.204 173.561C161.601 173.561 157.015 185.136 157.015 185.136C157.015 185.136 155.668 171.943 163.524 164.881H146.164C154.02 171.94 152.673 185.136 152.673 185.136C152.673 185.136 148.087 173.561 137.484 173.561C128.643 173.561 123.018 181.143 123.018 188.027C123.018 201.786 138.774 206.486 147.611 199.602Z" fill="#047ECF"/>
<path d="M61.4366 290.635C61.4366 290.635 53.4801 297 53.4801 305.824C53.4801 310.99 58.0664 319.566 68.6695 319.566C79.2726 319.566 83.8589 310.986 83.8589 305.824C83.8589 297 75.9024 290.635 75.9024 290.635C84.7399 297.519 100.495 292.819 100.495 279.06C100.495 272.172 94.8673 264.594 86.0297 264.594C75.4267 264.594 70.8404 276.169 70.8404 276.169C70.8404 276.169 69.4936 262.976 77.3496 255.914H59.9894C67.8454 262.973 66.4986 276.169 66.4986 276.169C66.4986 276.169 61.9123 264.594 51.3093 264.594C42.4683 264.594 36.8435 272.175 36.8435 279.06C36.8435 292.819 52.599 297.519 61.4366 290.635Z" fill="#047ECF"/>
<path d="M61.6815 199.834C61.6815 199.834 53.725 206.199 53.725 215.023C53.725 220.189 58.3113 228.765 68.9144 228.765C79.5174 228.765 84.1037 220.185 84.1037 215.023C84.1037 206.199 76.1472 199.834 76.1472 199.834C84.9848 206.718 100.74 202.018 100.74 188.259C100.74 181.371 95.1122 173.793 86.2746 173.793C75.6715 173.793 71.0852 185.368 71.0852 185.368C71.0852 185.368 69.7385 172.175 77.5945 165.113H60.2342C68.0902 172.172 66.7435 185.368 66.7435 185.368C66.7435 185.368 62.1572 173.793 51.5541 173.793C42.7132 173.793 37.0884 181.374 37.0884 188.259C37.0884 202.018 52.8439 206.718 61.6815 199.834Z" fill="#047ECF"/>
</g>
<defs>
<clipPath id="clip0_14_2966">
<rect width="222.783" height="323.556" fill="white"/>
</clipPath>
</defs>
</svg>
