<svg width="223" height="324" viewBox="0 0 223 324" fill="none" xmlns="http://www.w3.org/2000/svg">
<g clip-path="url(#clip0_14_3027)">
<path d="M222.449 314.064C222.449 319.1 218.333 323.223 213.288 323.223H9.48104C4.44784 323.223 0.333252 319.1 0.333252 314.064V9.49353C0.333252 4.45707 4.44784 0.333374 9.48104 0.333374H213.288C218.333 0.333374 222.449 4.45707 222.449 9.49353V314.064Z" fill="white" stroke="black" stroke-width="0.666667"/>
<path d="M31.1096 43.0432C23.8699 43.0432 22.9032 50.3078 22.9032 50.3078C22.9032 50.3078 21.9366 43.0432 14.6969 43.0432C9.62931 43.0432 5.04395 46.3005 5.04395 52.4452C5.04395 60.5643 19.7313 68.729 22.9032 80.651C25.9215 68.739 40.7625 60.5643 40.7625 52.4452C40.7625 46.3005 36.1771 43.0432 31.1096 43.0432Z" fill="#C80000"/>
<path d="M192.002 278.995C199.241 278.995 200.208 271.73 200.208 271.73C200.208 271.73 201.175 278.995 208.414 278.995C213.482 278.995 218.067 275.737 218.067 269.593C218.067 261.474 203.38 253.309 200.208 241.387C197.19 253.299 182.349 261.474 182.349 269.593C182.349 275.737 186.934 278.995 192.002 278.995Z" fill="#C80000"/>
<path d="M86.3039 8.79443C74.2875 8.79443 72.683 20.8521 72.683 20.8521C72.683 20.8521 71.0786 8.79443 59.0622 8.79443C50.6511 8.79443 43.0403 14.2008 43.0403 24.3998C43.0403 37.8758 67.4183 51.4275 72.683 71.2157C77.6927 51.4441 102.326 37.8758 102.326 24.3998C102.326 14.2008 94.715 8.79443 86.3039 8.79443Z" fill="#C80000"/>
<path d="M59.0621 314.952C71.0785 314.952 72.6829 302.894 72.6829 302.894C72.6829 302.894 74.2873 314.952 86.3038 314.952C94.7149 314.952 102.326 309.546 102.326 299.347C102.326 285.871 77.9477 272.319 72.6829 252.531C67.6733 272.302 43.0402 285.871 43.0402 299.347C43.0402 309.546 50.651 314.952 59.0621 314.952Z" fill="#C80000"/>
<path d="M86.3039 95.7742C74.2875 95.7742 72.683 107.832 72.683 107.832C72.683 107.832 71.0786 95.7742 59.0622 95.7742C50.6511 95.7742 43.0403 101.181 43.0403 111.379C43.0403 124.856 67.4183 138.407 72.683 158.195C77.6927 138.424 102.326 124.856 102.326 111.379C102.326 101.181 94.715 95.7742 86.3039 95.7742Z" fill="#C80000"/>
<path d="M59.0621 225.019C71.0785 225.019 72.6829 212.961 72.6829 212.961C72.6829 212.961 74.2873 225.019 86.3038 225.019C94.7149 225.019 102.326 219.612 102.326 209.413C102.326 195.937 77.9477 182.386 72.6829 162.597C67.6733 182.369 43.0402 195.937 43.0402 209.413C43.0402 219.612 50.651 225.019 59.0621 225.019Z" fill="#C80000"/>
<path d="M162.942 9.59277C150.926 9.59277 149.321 21.6505 149.321 21.6505C149.321 21.6505 147.717 9.59277 135.7 9.59277C127.289 9.59277 119.678 14.9992 119.678 25.1981C119.678 38.6742 144.056 52.2259 149.321 72.0141C154.331 52.2425 178.964 38.6742 178.964 25.1981C178.964 14.9992 171.353 9.59277 162.942 9.59277Z" fill="#C80000"/>
<path d="M135.7 315.751C147.717 315.751 149.321 303.693 149.321 303.693C149.321 303.693 150.926 315.751 162.942 315.751C171.353 315.751 178.964 310.344 178.964 300.145C178.964 286.669 154.586 273.118 149.321 253.329C144.311 273.101 119.678 286.669 119.678 300.145C119.678 310.344 127.289 315.751 135.7 315.751Z" fill="#C80000"/>
<path d="M162.942 96.5725C150.926 96.5725 149.321 108.63 149.321 108.63C149.321 108.63 147.717 96.5725 135.7 96.5725C127.289 96.5725 119.678 101.979 119.678 112.178C119.678 125.654 144.056 139.206 149.321 158.994C154.331 139.222 178.964 125.654 178.964 112.178C178.964 101.979 171.353 96.5725 162.942 96.5725Z" fill="#C80000"/>
<path d="M135.7 225.817C147.717 225.817 149.321 213.759 149.321 213.759C149.321 213.759 150.926 225.817 162.942 225.817C171.353 225.817 178.964 220.411 178.964 210.212C178.964 196.736 154.586 183.184 149.321 163.396C144.311 183.167 119.678 196.736 119.678 210.212C119.678 220.411 127.289 225.817 135.7 225.817Z" fill="#C80000"/>
<path d="M124.572 52.3954C112.556 52.3954 110.951 64.4531 110.951 64.4531C110.951 64.4531 109.347 52.3954 97.3303 52.3954C88.9191 52.3954 81.3083 57.8018 81.3083 68.0007C81.3083 81.4768 105.686 95.0285 110.951 114.817C115.961 95.0451 140.594 81.4768 140.594 68.0007C140.594 57.8018 132.983 52.3954 124.572 52.3954Z" fill="#C80000"/>
<path d="M13.9918 26.6217L17.5959 26.2884C17.9015 27.9828 18.4848 29.212 19.3459 29.9759C20.2071 30.7398 21.3112 31.1217 22.6584 31.1217C23.8112 31.1217 24.8182 30.8578 25.6793 30.33C26.5543 29.8023 27.2696 29.1009 27.8251 28.2259C28.3807 27.337 28.8459 26.1425 29.2209 24.6425C29.5959 23.1425 29.7834 21.6148 29.7834 20.0592C29.7834 19.8925 29.7765 19.6425 29.7626 19.3092C29.0126 20.5036 27.9848 21.4759 26.6793 22.2259C25.3876 22.962 23.9848 23.33 22.4709 23.33C19.9432 23.33 17.8043 22.4134 16.0543 20.58C14.3043 18.7467 13.4293 16.33 13.4293 13.33C13.4293 10.2328 14.339 7.73976 16.1584 5.85087C17.9918 3.96198 20.2834 3.01754 23.0334 3.01754C25.0196 3.01754 26.8321 3.55226 28.4709 4.6217C30.1237 5.69115 31.3737 7.21893 32.2209 9.20504C33.0821 11.1773 33.5126 14.0384 33.5126 17.7884C33.5126 21.6911 33.089 24.8023 32.2418 27.1217C31.3946 29.4273 30.1307 31.1842 28.4501 32.3925C26.7834 33.6009 24.8251 34.205 22.5751 34.205C20.1862 34.205 18.2348 33.5453 16.7209 32.2259C15.2071 30.8925 14.2973 29.0245 13.9918 26.6217ZM29.3459 13.1425C29.3459 10.9898 28.7696 9.28143 27.6168 8.01754C26.4779 6.75365 25.1029 6.1217 23.4918 6.1217C21.8251 6.1217 20.3737 6.80226 19.1376 8.16337C17.9015 9.52448 17.2834 11.2884 17.2834 13.455C17.2834 15.3995 17.8668 16.9828 19.0334 18.205C20.214 19.4134 21.6654 20.0175 23.3876 20.0175C25.1237 20.0175 26.5473 19.4134 27.6584 18.205C28.7834 16.9828 29.3459 15.2953 29.3459 13.1425Z" fill="#C80000"/>
<path d="M209.424 295.416L205.82 295.749C205.514 294.055 204.931 292.825 204.07 292.062C203.208 291.298 202.104 290.916 200.757 290.916C199.604 290.916 198.597 291.18 197.736 291.707C196.861 292.235 196.146 292.937 195.59 293.812C195.035 294.7 194.57 295.895 194.195 297.395C193.82 298.895 193.632 300.423 193.632 301.978C193.632 302.145 193.639 302.395 193.653 302.728C194.403 301.534 195.431 300.562 196.736 299.812C198.028 299.075 199.431 298.707 200.945 298.707C203.472 298.707 205.611 299.624 207.361 301.457C209.111 303.291 209.986 305.707 209.986 308.707C209.986 311.805 209.077 314.298 207.257 316.187C205.424 318.075 203.132 319.02 200.382 319.02C198.396 319.02 196.583 318.485 194.945 317.416C193.292 316.346 192.042 314.819 191.195 312.832C190.333 310.86 189.903 307.999 189.903 304.249C189.903 300.346 190.327 297.235 191.174 294.916C192.021 292.61 193.285 290.853 194.965 289.645C196.632 288.437 198.59 287.832 200.84 287.832C203.229 287.832 205.181 288.492 206.695 289.812C208.208 291.145 209.118 293.013 209.424 295.416ZM194.07 308.895C194.07 311.048 194.646 312.756 195.799 314.02C196.938 315.284 198.313 315.916 199.924 315.916C201.59 315.916 203.042 315.235 204.278 313.874C205.514 312.513 206.132 310.749 206.132 308.582C206.132 306.638 205.549 305.055 204.382 303.832C203.202 302.624 201.75 302.02 200.028 302.02C198.292 302.02 196.868 302.624 195.757 303.832C194.632 305.055 194.07 306.742 194.07 308.895Z" fill="#C80000"/>
</g>
<defs>
<clipPath id="clip0_14_3027">
<rect width="222.783" height="323.556" fill="white"/>
</clipPath>
</defs>
</svg>
