<svg width="223" height="324" viewBox="0 0 223 324" fill="none" xmlns="http://www.w3.org/2000/svg">
<g clip-path="url(#clip0_14_3062)">
<path d="M222.449 314.064C222.449 319.1 218.333 323.223 213.288 323.223H9.48104C4.44784 323.223 0.333252 319.1 0.333252 314.064V9.49347C0.333252 4.45701 4.44784 0.333313 9.48104 0.333313H213.288C218.333 0.333313 222.449 4.45701 222.449 9.49347V314.064Z" fill="white" stroke="#323232" stroke-width="0.666667"/>
<path d="M13.7288 26.6219L17.333 26.2886C17.6386 27.983 18.2219 29.2122 19.083 29.9761C19.9441 30.7399 21.0483 31.1219 22.3955 31.1219C23.5483 31.1219 24.5552 30.858 25.4163 30.3302C26.2913 29.8024 27.0066 29.1011 27.5622 28.2261C28.1177 27.3372 28.583 26.1427 28.958 24.6427C29.333 23.1427 29.5205 21.6149 29.5205 20.0594C29.5205 19.8927 29.5136 19.6427 29.4997 19.3094C28.7497 20.5038 27.7219 21.4761 26.4163 22.2261C25.1247 22.9622 23.7219 23.3302 22.208 23.3302C19.6802 23.3302 17.5413 22.4136 15.7913 20.5802C14.0413 18.7469 13.1663 16.3302 13.1663 13.3302C13.1663 10.233 14.0761 7.73994 15.8955 5.85105C17.7288 3.96216 20.0205 3.01772 22.7705 3.01772C24.7566 3.01772 26.5691 3.55244 28.208 4.62189C29.8608 5.69133 31.1108 7.21911 31.958 9.20522C32.8191 11.1774 33.2497 14.0386 33.2497 17.7886C33.2497 21.6913 32.8261 24.8024 31.9788 27.1219C31.1316 29.4274 29.8677 31.1844 28.1872 32.3927C26.5205 33.6011 24.5622 34.2052 22.3122 34.2052C19.9233 34.2052 17.9719 33.5455 16.458 32.2261C14.9441 30.8927 14.0344 29.0247 13.7288 26.6219ZM29.083 13.1427C29.083 10.9899 28.5066 9.28161 27.3538 8.01772C26.215 6.75383 24.84 6.12189 23.2288 6.12189C21.5622 6.12189 20.1108 6.80244 18.8747 8.16355C17.6386 9.52466 17.0205 11.2886 17.0205 13.4552C17.0205 15.3997 17.6038 16.983 18.7705 18.2052C19.9511 19.4136 21.4025 20.0177 23.1247 20.0177C24.8608 20.0177 26.2844 19.4136 27.3955 18.2052C28.5205 16.983 29.083 15.2955 29.083 13.1427Z" fill="#323232"/>
<path d="M38.6416 65.7946C38.1548 58.3333 23.0588 44.29 22.572 40.7773C22.0853 44.2881 6.98925 58.3315 6.50248 65.7946C6.16254 71.0691 9.9119 73.2558 13.3213 73.2558C17.0127 73.2161 20.0615 68.105 21.1117 67.1114C21.5985 68.4282 17.8873 79.4002 16.7287 79.4002H28.4173C27.2587 79.4002 23.5476 68.4282 24.0344 67.1114C24.9539 68.0241 27.6492 73.1028 31.8268 73.2558C35.2342 73.254 38.9815 71.0691 38.6416 65.7946Z" fill="#323232"/>
<path d="M98.8949 52.3741C98.0403 39.2742 71.5358 14.6179 70.6812 8.45062C69.8266 14.6147 43.3221 39.271 42.4675 52.3741C41.8706 61.6348 48.4535 65.474 54.4395 65.474C60.9205 65.4043 66.2733 56.4307 68.1173 54.6861C68.9719 56.998 62.4562 76.2619 60.422 76.2619H80.9439C78.9098 76.2619 72.394 56.998 73.2487 54.6861C74.8631 56.2886 79.5953 65.2054 86.93 65.474C92.9124 65.4708 99.4918 61.6348 98.8949 52.3741Z" fill="#323232"/>
<path d="M209.637 297.561L206.033 297.894C205.727 296.2 205.144 294.971 204.283 294.207C203.422 293.443 202.317 293.061 200.97 293.061C199.817 293.061 198.81 293.325 197.949 293.853C197.074 294.381 196.359 295.082 195.804 295.957C195.248 296.846 194.783 298.04 194.408 299.54C194.033 301.04 193.845 302.568 193.845 304.124C193.845 304.29 193.852 304.54 193.866 304.874C194.616 303.679 195.644 302.707 196.949 301.957C198.241 301.221 199.644 300.853 201.158 300.853C203.685 300.853 205.824 301.769 207.574 303.603C209.324 305.436 210.199 307.853 210.199 310.853C210.199 313.95 209.29 316.443 207.47 318.332C205.637 320.221 203.345 321.165 200.595 321.165C198.609 321.165 196.797 320.631 195.158 319.561C193.505 318.492 192.255 316.964 191.408 314.978C190.547 313.006 190.116 310.144 190.116 306.394C190.116 302.492 190.54 299.381 191.387 297.061C192.234 294.756 193.498 292.999 195.179 291.79C196.845 290.582 198.804 289.978 201.054 289.978C203.442 289.978 205.394 290.638 206.908 291.957C208.422 293.29 209.331 295.158 209.637 297.561ZM194.283 311.04C194.283 313.193 194.859 314.901 196.012 316.165C197.151 317.429 198.526 318.061 200.137 318.061C201.804 318.061 203.255 317.381 204.491 316.019C205.727 314.658 206.345 312.894 206.345 310.728C206.345 308.783 205.762 307.2 204.595 305.978C203.415 304.769 201.963 304.165 200.241 304.165C198.505 304.165 197.081 304.769 195.97 305.978C194.845 307.2 194.283 308.888 194.283 311.04Z" fill="#323232"/>
<path d="M184.23 258.352C184.717 265.813 199.813 279.857 200.3 283.369C200.787 279.858 215.883 265.815 216.37 258.352C216.71 253.078 212.96 250.891 209.551 250.891C205.859 250.93 202.811 256.042 201.76 257.035C201.274 255.718 204.985 244.746 206.143 244.746H194.455C195.613 244.746 199.324 255.718 198.838 257.035C197.918 256.123 195.223 251.044 191.045 250.891C187.638 250.893 183.891 253.078 184.23 258.352Z" fill="#323232"/>
<path d="M99.3334 136.284C98.4788 123.184 71.9743 98.5279 71.1197 92.3606C70.265 98.5247 43.7606 123.181 42.906 136.284C42.3091 145.545 48.892 149.384 54.878 149.384C61.359 149.314 66.7118 140.341 68.5558 138.596C69.4104 140.908 62.8946 160.172 60.8605 160.172H81.3824C79.3482 160.172 72.8325 140.908 73.6871 138.596C75.3016 140.199 80.0338 149.115 87.3684 149.384C93.3509 149.381 99.9302 145.545 99.3334 136.284Z" fill="#323232"/>
<path d="M43.5052 273.532C44.3599 286.632 70.8643 311.289 71.7189 317.456C72.5736 311.292 99.078 286.636 99.9327 273.532C100.53 264.272 93.9467 260.433 87.9606 260.433C81.4796 260.502 76.1268 269.476 74.2829 271.221C73.4282 268.909 79.944 249.645 81.9782 249.645H61.4562C63.4904 249.645 70.0061 268.909 69.1515 271.221C67.537 269.618 62.8048 260.701 55.4702 260.433C49.4877 260.436 42.9084 264.272 43.5052 273.532Z" fill="#323232"/>
<path d="M43.067 191.756C43.9216 204.856 70.4261 229.512 71.2807 235.679C72.1354 229.515 98.6398 204.859 99.4944 191.756C100.091 182.495 93.5084 178.656 87.5224 178.656C81.0414 178.726 75.6886 187.699 73.8446 189.444C72.99 187.132 79.5057 167.868 81.5399 167.868H61.018C63.0521 167.868 69.5679 187.132 68.7133 189.444C67.0988 187.841 62.3666 178.924 55.0319 178.656C49.0495 178.659 42.4701 182.495 43.067 191.756Z" fill="#323232"/>
<path d="M181.518 52.1235C180.663 39.0236 154.159 14.3673 153.304 8.20001C152.45 14.3641 125.945 39.0204 125.091 52.1235C124.494 61.3842 131.077 65.2234 137.063 65.2234C143.544 65.1537 148.896 56.1801 150.74 54.4354C151.595 56.7474 145.079 76.0113 143.045 76.0113H163.567C161.533 76.0113 155.017 56.7474 155.872 54.4354C157.486 56.038 162.218 64.9548 169.553 65.2234C175.535 65.2202 182.115 61.3842 181.518 52.1235Z" fill="#323232"/>
<path d="M181.956 136.033C181.102 122.934 154.597 98.2773 153.743 92.11C152.888 98.2741 126.384 122.93 125.529 136.033C124.932 145.294 131.515 149.133 137.501 149.133C143.982 149.064 149.335 140.09 151.179 138.345C152.033 140.657 145.518 159.921 143.484 159.921H164.005C161.971 159.921 155.456 140.657 156.31 138.345C157.925 139.948 162.657 148.865 169.991 149.133C175.974 149.13 182.553 145.294 181.956 136.033Z" fill="#323232"/>
<path d="M126.129 273.282C126.983 286.382 153.488 311.038 154.342 317.205C155.197 311.041 181.701 286.385 182.556 273.282C183.153 264.021 176.57 260.182 170.584 260.182C164.103 260.252 158.75 269.225 156.906 270.97C156.052 268.658 162.567 249.394 164.601 249.394H144.079C146.114 249.394 152.629 268.658 151.775 270.97C150.16 269.367 145.428 260.45 138.093 260.182C132.111 260.185 125.532 264.021 126.129 273.282Z" fill="#323232"/>
<path d="M125.69 191.505C126.545 204.605 153.049 229.261 153.904 235.429C154.758 229.265 181.263 204.608 182.117 191.505C182.714 182.245 176.131 178.405 170.145 178.405C163.664 178.475 158.312 187.449 156.468 189.193C155.613 186.881 162.129 167.617 164.163 167.617H143.641C145.675 167.617 152.191 186.881 151.336 189.193C149.722 187.591 144.99 178.674 137.655 178.405C131.673 178.409 125.093 182.245 125.69 191.505Z" fill="#323232"/>
<path d="M140.417 95.581C139.562 82.4812 113.058 57.8248 112.203 51.6575C111.348 57.8216 84.8438 82.4779 83.9892 95.581C83.3924 104.842 89.9752 108.681 95.9612 108.681C102.442 108.611 107.795 99.6376 109.639 97.893C110.494 100.205 103.978 119.469 101.944 119.469H122.466C120.431 119.469 113.916 100.205 114.77 97.893C116.385 99.4955 121.117 108.412 128.452 108.681C134.434 108.678 141.013 104.842 140.417 95.581Z" fill="#323232"/>
</g>
<defs>
<clipPath id="clip0_14_3062">
<rect width="222.783" height="323.556" fill="white"/>
</clipPath>
</defs>
</svg>
