<svg width="223" height="324" viewBox="0 0 223 324" fill="none" xmlns="http://www.w3.org/2000/svg">
<g clip-path="url(#clip0_14_3267)">
<path d="M222.449 314.064C222.449 319.1 218.334 323.223 213.288 323.223H9.48128C4.44808 323.223 0.333496 319.1 0.333496 314.064V9.49353C0.333496 4.45707 4.44808 0.333374 9.48128 0.333374H213.288C218.334 0.333374 222.449 4.45707 222.449 9.49353V314.064Z" fill="white" stroke="black" stroke-width="0.666667"/>
<path d="M8.26514 33.6843L19.9943 3.14266H24.3485L36.8485 33.6843H32.2443L28.6818 24.4343H15.911L12.5568 33.6843H8.26514ZM17.0776 21.1427H27.4318L24.2443 12.6843C23.2721 10.1149 22.5499 8.00377 22.0776 6.35099C21.6887 8.30933 21.1401 10.2538 20.4318 12.1843L17.0776 21.1427Z" fill="#DEA701"/>
<path d="M214.846 288.354L203.117 318.895H198.763L186.263 288.354H190.867L194.43 297.604H207.2L210.555 288.354H214.846ZM206.034 300.895H195.68L198.867 309.354C199.839 311.923 200.561 314.034 201.034 315.687C201.423 313.729 201.971 311.784 202.68 309.854L206.034 300.895Z" fill="#DEA701"/>
<path d="M135.448 118.355C118.649 95.6283 109.712 72.5316 109.712 72.5316C109.712 72.5316 100.774 95.6283 83.9754 118.355C67.1688 141.073 46.2305 155.851 46.2305 155.851C46.2305 155.851 67.1688 170.621 83.9754 193.355C100.774 216.073 109.712 239.17 109.712 239.17C109.712 239.17 118.649 216.073 135.448 193.355C152.255 170.621 173.193 155.851 173.193 155.851C173.193 155.851 152.255 141.073 135.448 118.355Z" fill="url(#paint0_radial_14_3267)"/>
<g filter="url(#filter0_f_14_3267)">
<path d="M103.133 98.5704C103.133 98.5704 111.094 130.797 102.375 142.057C92.574 154.714 56.5103 153.508 56.5103 153.508C56.5103 153.508 78.8904 141.122 87.0228 131.43C94.7983 122.163 103.133 98.5704 103.133 98.5704Z" fill="url(#paint1_radial_14_3267)"/>
</g>
<path d="M29.0111 49.6763C24.8422 44.0365 22.6243 38.3048 22.6243 38.3048C22.6243 38.3048 20.4063 44.0365 16.2375 49.6763C12.0667 55.3142 6.87061 58.9815 6.87061 58.9815C6.87061 58.9815 12.0667 62.6468 16.2375 68.2886C20.4063 73.9265 22.6243 79.6582 22.6243 79.6582C22.6243 79.6582 24.8422 73.9265 29.0111 68.2886C33.1818 62.6468 38.3779 58.9815 38.3779 58.9815C38.3779 58.9815 33.1818 55.3142 29.0111 49.6763Z" fill="#DEA701"/>
<path d="M207.215 255.366C203.046 249.726 200.828 243.995 200.828 243.995C200.828 243.995 198.61 249.726 194.441 255.366C190.27 261.004 185.074 264.671 185.074 264.671C185.074 264.671 190.27 268.337 194.441 273.978C198.61 279.616 200.828 285.348 200.828 285.348C200.828 285.348 203.046 279.616 207.215 273.978C211.385 268.337 216.582 264.671 216.582 264.671C216.582 264.671 211.385 261.004 207.215 255.366Z" fill="#DEA701"/>
</g>
<defs>
<filter id="filter0_f_14_3267" x="49.9975" y="92.0577" width="62.9718" height="67.9942" filterUnits="userSpaceOnUse" color-interpolation-filters="sRGB">
<feFlood flood-opacity="0" result="BackgroundImageFix"/>
<feBlend mode="normal" in="SourceGraphic" in2="BackgroundImageFix" result="shape"/>
<feGaussianBlur stdDeviation="3.25639" result="effect1_foregroundBlur_14_3267"/>
</filter>
<radialGradient id="paint0_radial_14_3267" cx="0" cy="0" r="1" gradientUnits="userSpaceOnUse" gradientTransform="translate(109.712 122.172) rotate(179.719) scale(71.2533 117.461)">
<stop stop-color="#DEA701"/>
<stop offset="1" stop-color="#DEA701" stop-opacity="0.66"/>
</radialGradient>
<radialGradient id="paint1_radial_14_3267" cx="0" cy="0" r="1" gradientUnits="userSpaceOnUse" gradientTransform="translate(92.7715 136.992) rotate(139.627) scale(37.1401 22.1254)">
<stop stop-color="white" stop-opacity="0.435115"/>
<stop offset="1" stop-opacity="0"/>
</radialGradient>
<clipPath id="clip0_14_3267">
<rect width="222.783" height="323.556" fill="white"/>
</clipPath>
</defs>
</svg>
