<svg width="223" height="324" viewBox="0 0 223 324" fill="none" xmlns="http://www.w3.org/2000/svg">
<g clip-path="url(#clip0_14_3328)">
<path d="M222.449 314.064C222.449 319.1 218.334 323.223 213.288 323.223H9.48128C4.44808 323.223 0.333496 319.1 0.333496 314.064V9.49347C0.333496 4.45701 4.44808 0.333313 9.48128 0.333313H213.288C218.334 0.333313 222.449 4.45701 222.449 9.49347V314.064Z" fill="white" stroke="#323232" stroke-width="0.666667"/>
<path d="M8.26514 33.6844L19.9943 3.14272H24.3485L36.8485 33.6844H32.2443L28.6818 24.4344H15.911L12.5568 33.6844H8.26514ZM17.0776 21.1427H27.4318L24.2443 12.6844C23.2721 10.1149 22.5499 8.00383 22.0776 6.35105C21.6887 8.30939 21.1401 10.2538 20.4318 12.1844L17.0776 21.1427Z" fill="#323232"/>
<path d="M214.606 290.462L202.877 321.004H198.523L186.023 290.462H190.627L194.19 299.712H206.961L210.315 290.462H214.606ZM205.794 303.004H195.44L198.627 311.462C199.6 314.032 200.322 316.143 200.794 317.796C201.183 315.837 201.731 313.893 202.44 311.962L205.794 303.004Z" fill="#323232"/>
<path d="M179.065 183.91C177.03 152.718 113.921 94.0091 111.886 79.3242C109.851 94.0014 46.7421 152.71 44.7072 183.91C43.2861 205.96 58.9603 215.101 73.2135 215.101C88.6454 214.935 101.391 193.569 105.781 189.414C107.816 194.919 92.3018 240.788 87.4583 240.788H136.323C131.479 240.788 115.965 194.919 118 189.414C121.844 193.23 133.112 214.462 150.576 215.101C164.821 215.094 180.487 205.96 179.065 183.91Z" fill="url(#paint0_radial_14_3328)"/>
<g filter="url(#filter0_f_14_3328)">
<path d="M63.7274 221.853C63.7274 221.853 34.8482 198.397 38.3605 177.86C42.3086 154.776 78.2972 105.054 78.2972 105.054C78.2972 105.054 72.9121 163.847 68.9857 181.932C65.2316 199.223 63.7274 221.853 63.7274 221.853Z" fill="url(#paint1_radial_14_3328)"/>
</g>
<g filter="url(#filter1_f_14_3328)">
<path d="M69.2311 206.176C69.2311 206.176 41.1354 156.771 53.1833 134.383C66.7257 109.218 130.871 74.9342 130.871 74.9342C130.871 74.9342 102.323 142.409 90.6534 161.52C79.4957 179.792 69.2311 206.176 69.2311 206.176Z" fill="url(#paint2_radial_14_3328)"/>
</g>
<g filter="url(#filter2_f_14_3328)">
<path d="M86.7125 163.316C86.7125 163.316 70.0811 130.036 81.7529 112.777C94.8725 93.3772 148.168 62.9301 148.168 62.9301C148.168 62.9301 119.008 114.265 107.971 129.12C97.4183 143.322 86.7125 163.316 86.7125 163.316Z" fill="url(#paint3_radial_14_3328)"/>
</g>
<path d="M18.7393 48.8145V275.041H198.06V48.8145H18.7393ZM111.888 79.3261C113.923 94.0109 177.025 152.72 179.06 183.911C180.481 205.962 164.82 215.094 150.576 215.102C133.111 214.462 121.839 193.23 117.995 189.415C115.96 194.919 131.473 240.789 136.317 240.789H87.4587C92.3023 240.789 107.816 194.919 105.781 189.415C101.39 193.569 88.6402 214.936 73.2084 215.102C58.9552 215.102 43.2866 205.962 44.7077 183.911C46.7426 152.712 109.853 94.0032 111.888 79.3261Z" fill="#FFFEFF"/>
<path d="M38.6416 65.7949C38.1548 58.3337 23.0588 44.2903 22.572 40.7776C22.0853 44.2885 6.98925 58.3319 6.50248 65.7949C6.16254 71.0695 9.9119 73.2562 13.3213 73.2562C17.0127 73.2165 20.0615 68.1054 21.1117 67.1117C21.5985 68.4285 17.8873 79.4006 16.7287 79.4006H28.4173C27.2587 79.4006 23.5476 68.4285 24.0344 67.1117C24.9539 68.0245 27.6492 73.1032 31.8268 73.2562C35.2342 73.2543 38.9815 71.0695 38.6416 65.7949Z" fill="#323232"/>
<path d="M184.23 258.352C184.717 265.813 199.813 279.856 200.3 283.369C200.786 279.858 215.882 265.815 216.369 258.352C216.709 253.077 212.96 250.891 209.55 250.891C205.859 250.93 202.81 256.041 201.76 257.035C201.273 255.718 204.984 244.746 206.143 244.746H194.454C195.613 244.746 199.324 255.718 198.837 257.035C197.918 256.122 195.222 251.043 191.045 250.891C187.637 250.892 183.89 253.077 184.23 258.352Z" fill="#323232"/>
</g>
<defs>
<filter id="filter0_f_14_3328" x="22.9457" y="89.9355" width="70.4704" height="147.036" filterUnits="userSpaceOnUse" color-interpolation-filters="sRGB">
<feFlood flood-opacity="0" result="BackgroundImageFix"/>
<feBlend mode="normal" in="SourceGraphic" in2="BackgroundImageFix" result="shape"/>
<feGaussianBlur stdDeviation="7.55938" result="effect1_foregroundBlur_14_3328"/>
</filter>
<filter id="filter1_f_14_3328" x="29.3604" y="54.1139" width="122.331" height="172.882" filterUnits="userSpaceOnUse" color-interpolation-filters="sRGB">
<feFlood flood-opacity="0" result="BackgroundImageFix"/>
<feBlend mode="normal" in="SourceGraphic" in2="BackgroundImageFix" result="shape"/>
<feGaussianBlur stdDeviation="10.4101" result="effect1_foregroundBlur_14_3328"/>
</filter>
<filter id="filter2_f_14_3328" x="62.4804" y="47.8113" width="100.806" height="130.624" filterUnits="userSpaceOnUse" color-interpolation-filters="sRGB">
<feFlood flood-opacity="0" result="BackgroundImageFix"/>
<feBlend mode="normal" in="SourceGraphic" in2="BackgroundImageFix" result="shape"/>
<feGaussianBlur stdDeviation="7.55938" result="effect1_foregroundBlur_14_3328"/>
</filter>
<radialGradient id="paint0_radial_14_3328" cx="0" cy="0" r="1" gradientUnits="userSpaceOnUse" gradientTransform="translate(109.616 122.982) rotate(-179.223) scale(106.582 152.397)">
<stop stop-color="#323232"/>
<stop offset="1" stop-color="#323232" stop-opacity="0.65"/>
</radialGradient>
<radialGradient id="paint1_radial_14_3328" cx="0" cy="0" r="1" gradientUnits="userSpaceOnUse" gradientTransform="translate(54.8651 180.274) rotate(-68.5199) scale(60.3212 29.5422)">
<stop stop-color="white" stop-opacity="0.435115"/>
<stop offset="1" stop-opacity="0"/>
</radialGradient>
<radialGradient id="paint2_radial_14_3328" cx="0" cy="0" r="1" gradientUnits="userSpaceOnUse" gradientTransform="translate(73.2958 149.274) rotate(-46.8824) scale(71.4289 45.2158)">
<stop stop-color="white" stop-opacity="0.48855"/>
<stop offset="1" stop-opacity="0"/>
</radialGradient>
<radialGradient id="paint3_radial_14_3328" cx="0" cy="0" r="1" gradientUnits="userSpaceOnUse" gradientTransform="translate(95.7919 121.784) rotate(-44.1559) scale(60.3213 29.5422)">
<stop stop-color="white" stop-opacity="0.236641"/>
<stop offset="1" stop-opacity="0"/>
</radialGradient>
<clipPath id="clip0_14_3328">
<rect width="222.783" height="323.556" fill="white"/>
</clipPath>
</defs>
</svg>
